<?xml version="1.0" encoding="utf-8"?>
<!-- Generator: Adobe Illustrator 23.0.3, SVG Export Plug-In . SVG Version: 6.00 Build 0)  -->
<svg version="1.1" id="Calque_1" xmlns="http://www.w3.org/2000/svg" xmlns:xlink="http://www.w3.org/1999/xlink" x="0px" y="0px"
	 viewBox="0 0 595 615" style="enable-background:new 0 0 595 615;" xml:space="preserve">
<style type="text/css">
	.st0{fill:#761FC7;}
	.st1{fill:#1088F6;}
	.st2{fill:#06AA32;}
	.st3{fill:#D22116;}
	.st4{fill:#4B4A4B;}
</style>
<title>Cloning</title>
<path class="st0" d="M388.9,523.2c-8.4,15.5-16.8,31-25.1,46.6c-6.7,12.5-13.2,25-20.3,38.2c-5-16.4-10.1-31.9-14.5-47.6
	c-1.4-4.9-3.5-5.8-8.4-5.2c-26.9,2.9-53.5,1-80-4.6c-42.1-8.8-81.4-27.7-114.5-55.2C92.3,467.7,67.3,433.3,50,393
	c-17.1-40-23.6-81.7-20.1-124.9c4-50.8,21.4-96.7,51.5-137.5c25.1-34.3,58.3-61.9,96.5-80.3l8.4,16.3c3.3,6.6,6.5,13.1,9.8,19.7
	c1.7,3.9,3.3,7.8,5,11.7c-115,57.9-142.9,191.5-97.8,284.1c45.6,93.6,143.1,127.6,207.3,119.7c-4.6-15.2-9.2-30.3-14.2-46.6
	c2.9,1.4,4.4,2,5.8,2.8c19.9,10.5,39.7,21.1,59.6,31.6c8,4.2,16,8.1,24,12.2l10,6.5C393.6,513.1,391.3,518.2,388.9,523.2z"/>
<path class="st1" d="M383.3,52.9c2-4.5,3.9-9.1,6.3-14.7c12.1,5.8,24.1,11,35.6,17.3c21.1,11.6,40.4,26,57.4,43
	c15.5,15.5,29.3,32.4,40.2,51.4c2.4,4.2,4.4,4.6,8.6,2.8c9.6-4.2,19.4-7.9,30.7-12.4c-9.5,22.5-18.4,43.7-27.3,64.9
	c-1.3,2.7-2.7,5.3-3.8,8.1c-3.4,8.1-3.4,8.1-11.5,5.2c-1.1-0.3-2.2-0.6-3.4-0.8c-1.5-0.8-2.8-1.7-4.4-2.4
	c-12.7-5.5-25.4-10.9-38.1-16.4c-8.8-3.8-17.6-7.6-27.9-12l32.7-13.2c-0.7-1.4-1-2.2-1.4-2.9c-15.2-23.3-33.7-43.6-56.9-58.9
	c-14-9.2-29.2-16.5-44.1-24.3c-3.6-1.9-4.2-3.4-2.7-6.8c1-2.5,1.8-5,2.4-7.6L383.3,52.9z"/>
<path class="st2" d="M547.6,320.9l13.3,1.8c-12,76.3-48.7,136.9-110.8,182.7l-7.9-10.1c-4.2-6-8.4-12-12.6-18l-10.4-15.6
	c49.7-36.4,79.3-85.1,88.7-145.9l17.4,2.1L547.6,320.9z"/>
<path class="st3" d="M251.2,43.3c-0.4-2.8-0.8-5.6-1.2-8.4c-0.4-2.6-0.8-5.2-1.3-8.2c25.1-4.7,49.8-5.2,75.2-2.8
	c-0.3,5.3-0.6,10.4-0.9,15.5c-0.9,7.4-1.8,14.8-2.6,22.2c-0.5,5.1-1.1,10.1-1.5,14.2L258,78.1l-2.8-12.5L251.2,43.3z"/>
<path class="st4" d="M547.6,320.9l-22.3-3.1c0.5-4.6,1.3-9.2,1.6-13.9c1.9-29.4-2-58.1-10.8-86.3c1.1,0.2,2.3,0.5,3.4,0.8
	c8.1,2.9,8.1,2.9,11.5-5.2c1.2-2.7,2.5-5.4,3.8-8.1c12.4,34.9,16.6,70.8,13.3,107.7C547.8,315.5,547.7,318.2,547.6,320.9z"/>
<path class="st4" d="M251.2,43.3l4,22.2c-1.8,0-3.6,0.2-5.4,0.5c-18.6,4.5-36.6,11.3-53.6,20.1c-3.3-6.5-6.5-13.1-9.8-19.7
	C206.8,55.8,228.6,48,251.2,43.3z"/>
<path class="st4" d="M320.4,61.6c0.9-7.4,1.8-14.8,2.6-22.2c20.6,1.9,40.8,6,60.2,13.4l-7.6,20.5C357.9,66.7,339.3,62.8,320.4,61.6z
	"/>
<path class="st4" d="M429.6,477.2c4.2,6,8.4,12,12.6,18c-15.1,10.7-31.4,19.6-48.5,26.6c-1.5,0.6-3.2,1-4.8,1.4
	c2.4-5,4.8-10.1,7.2-15.2l-10-6.5c1.8-0.9,3.5-1.7,5.3-2.7C404.1,491.6,416.8,484.4,429.6,477.2z"/>
</svg>
