<?xml version="1.0" encoding="utf-8"?>
<!-- Generator: Adobe Illustrator 23.0.3, SVG Export Plug-In . SVG Version: 6.00 Build 0)  -->
<svg version="1.1" id="Layer_1" xmlns="http://www.w3.org/2000/svg" xmlns:xlink="http://www.w3.org/1999/xlink" x="0px" y="0px"
	 viewBox="0 0 128 101.5" style="enable-background:new 0 0 128 101.5;" xml:space="preserve">
<style type="text/css">
	.st0{fill:#3F51B5;}
</style>
<path class="st0" d="M41,42.4c0.6-0.2,1.2-0.4,1.9-0.5l1-1.5c1.3-2,1.5-4.5,0.4-6.6l-1.5-3c-3.5,0.2-6.9,1.4-9.8,3.4l0.7,0.2
	C37.4,35.7,40.1,38.7,41,42.4z"/>
<path class="st0" d="M49.4,43.6l1.8-0.4c2.3-0.5,4.2-2.1,5-4.4l1-3.1c-2.6-2.3-5.9-3.9-9.3-4.6l0.3,0.7c1.7,3.4,1.5,7.5-0.5,10.8
	C48.3,42.9,48.9,43.2,49.4,43.6z"/>
<path class="st0" d="M36.1,47.1c0.3-0.6,0.6-1.2,1-1.7l-0.4-1.8c-0.5-2.3-2.1-4.2-4.4-5l-3.1-1c-2.3,2.6-3.9,5.9-4.6,9.3l0.7-0.3
	C28.8,44.9,32.9,45.1,36.1,47.1z"/>
<path class="st0" d="M35.3,90.4h4.4v4.4h-4.4V90.4z"/>
<path class="st0" d="M48.6,50.7c0,2.4-2,4.4-4.4,4.4s-4.4-2-4.4-4.4s2-4.4,4.4-4.4S48.6,48.2,48.6,50.7z"/>
<path class="st0" d="M28,61.1c1.2-3.6,4.2-6.4,8-7.2c-0.2-0.6-0.4-1.2-0.5-1.9L34,51c-2-1.3-4.5-1.5-6.6-0.4l-3,1.5
	c0.2,3.5,1.4,6.9,3.4,9.8L28,61.1z"/>
<path class="st0" d="M38.9,57.7l-1.8,0.4c-2.3,0.5-4.2,2.1-5,4.4l-1,3.1c2.6,2.3,5.9,3.9,9.3,4.6l-0.3-0.7
	c-1.7-3.4-1.5-7.5,0.5-10.8C40,58.4,39.4,58.1,38.9,57.7z"/>
<path class="st0" d="M26.5,90.4h4.4v4.4h-4.4V90.4z"/>
<path class="st0" d="M47.3,58.9c-0.6,0.2-1.2,0.4-1.9,0.5l-1,1.5c-1.3,2-1.5,4.5-0.4,6.6l1.5,3c3.5-0.2,6.9-1.4,9.8-3.4l-0.7-0.2
	C50.9,65.6,48.2,62.6,47.3,58.9z"/>
<path class="st0" d="M61.8,90.4h4.4v4.4h-4.4V90.4z"/>
<path class="st0" d="M53,90.4h4.4v4.4H53V90.4z"/>
<path class="st0" d="M88.3,90.4h4.4v4.4h-4.4V90.4z"/>
<path class="st0" d="M79.5,90.4h4.4v4.4h-4.4V90.4z"/>
<path class="st0" d="M70.7,90.4h4.4v4.4h-4.4V90.4z"/>
<path class="st0" d="M105.8,49.4l1.5,1c2,1.3,4.5,1.5,6.6,0.4l3-1.5c-0.2-3.5-1.4-6.9-3.4-9.8l-0.2,0.7c-1.2,3.6-4.2,6.4-8,7.2
	C105.6,48.1,105.8,48.8,105.8,49.4z"/>
<path class="st0" d="M100.3,58.9c-0.6,0.2-1.2,0.4-1.9,0.5l-1,1.5c-1.3,2-1.5,4.5-0.4,6.6l1.5,3c3.5-0.2,6.9-1.4,9.8-3.4l-0.7-0.2
	C103.9,65.6,101.2,62.6,100.3,58.9z"/>
<path class="st0" d="M101.6,50.7c0,2.4-2,4.4-4.4,4.4s-4.4-2-4.4-4.4s2-4.4,4.4-4.4S101.6,48.2,101.6,50.7z"/>
<path class="st0" d="M111,55.9c-2.1,0-4.1-0.6-5.8-1.7c-0.3,0.6-0.6,1.2-1,1.7l0.4,1.8c0.5,2.3,2.1,4.2,4.4,5l3.1,1
	c2.3-2.6,3.9-5.9,4.6-9.3l-0.7,0.3C114.4,55.5,112.7,55.9,111,55.9z"/>
<path class="st0" d="M21.2,28.6l8.8-8.8h28.1l8.8,6.6h7.4l8.8-6.6h28l12.4,11h4.5V22c0-3.7-3-6.6-6.6-6.6H13.3V6.6
	c0-3.7-3-6.6-6.6-6.6H0v4.4h6.6c1.2,0,2.2,1,2.2,2.2v37.5H4.5v4.4h4.4v6.6H6.7v17.7h2.2v6.6H4.5v4.4h4.4v17.7h4.4V86.1h108.1
	c3.7,0,6.6-3,6.6-6.6v-8.8h-4.5l-12.4,11h-28l-8.8-6.6h-7.4l-8.8,6.6H30l-8.8-8.8h-7.9v-4.4H23l8.8,8.8h24.8l8.8-6.6h10.3l8.8,6.6
	h24.9l12.4-11h6.2V35.2h-6.2l-12.4-11H84.6l-8.8,6.6H65.5l-8.8-6.6H31.8L23,33h-9.7v-4.4H21.2z M97.1,26.4
	c13.4,0,24.3,10.9,24.3,24.3S110.5,75,97.1,75S72.9,64.1,72.9,50.7S83.7,26.4,97.1,26.4z M44.2,26.4c13.4,0,24.3,10.9,24.3,24.3
	S57.6,74.9,44.2,74.9S19.9,64.1,19.9,50.7S30.8,26.4,44.2,26.4z"/>
<path class="st0" d="M91.9,57.7l-1.8,0.4c-2.3,0.5-4.2,2.1-5,4.4l-1,3.1c2.6,2.3,5.9,3.9,9.3,4.6l-0.3-0.7
	c-1.7-3.4-1.5-7.5,0.5-10.8C93,58.4,92.4,58.1,91.9,57.7z"/>
<path class="st0" d="M58.1,55.9c-2.1,0-4.1-0.6-5.8-1.7c-0.3,0.6-0.6,1.2-1,1.7l0.4,1.8c0.5,2.3,2.1,4.2,4.4,5l3.1,1
	c2.3-2.6,3.9-5.9,4.6-9.3L63,54.8C61.5,55.5,59.8,55.9,58.1,55.9z"/>
<path class="st0" d="M80.9,61.1c1.2-3.6,4.2-6.4,8-7.2c-0.2-0.6-0.4-1.2-0.5-1.9l-1.5-1c-2-1.3-4.5-1.5-6.6-0.4l-3,1.5
	c0.2,3.5,1.4,6.9,3.4,9.8L80.9,61.1z"/>
<path class="st0" d="M102.4,43.6l1.8-0.4c2.3-0.5,4.2-2.1,5-4.4l1-3.1c-2.6-2.3-5.9-3.9-9.3-4.6l0.3,0.7c1.7,3.4,1.5,7.5-0.5,10.8
	C101.3,42.9,101.9,43.2,102.4,43.6z"/>
<path class="st0" d="M52.9,49.4l1.5,1c2,1.3,4.5,1.5,6.6,0.4l3-1.5c-0.2-3.5-1.4-6.9-3.4-9.8l-0.2,0.8c-1.2,3.6-4.2,6.4-8,7.2
	C52.6,48.1,52.8,48.8,52.9,49.4z"/>
<path class="st0" d="M89.1,47.1c0.3-0.6,0.6-1.2,1-1.7l-0.4-1.8c-0.5-2.3-2.1-4.2-4.4-5l-3.1-1c-2.3,2.6-3.9,5.9-4.6,9.3l0.7-0.3
	C81.8,44.9,85.8,45.1,89.1,47.1z"/>
<path class="st0" d="M94,42.4c0.6-0.2,1.2-0.4,1.9-0.5l1-1.5c1.3-2,1.5-4.5,0.4-6.6l-1.5-3c-3.5,0.2-6.9,1.4-9.8,3.4l0.7,0.2
	C90.4,35.7,93.1,38.7,94,42.4z"/>
</svg>
