<?xml version="1.0" encoding="iso-8859-1"?>
<!-- Generator: Adobe Illustrator 22.1.0, SVG Export Plug-In . SVG Version: 6.00 Build 0)  -->
<svg xmlns="http://www.w3.org/2000/svg" xmlns:xlink="http://www.w3.org/1999/xlink" version="1.1" id="Layer_3" x="0px" y="0px" viewBox="0 0 64 64" style="enable-background:new 0 0 64 64;" xml:space="preserve" width="512" height="512">
<g>
	<g>
		<polyline style="fill:#9D8980;" points="6,34 2,34 2,39 6,39   "/>
	</g>
	<g>
		<polyline style="fill:#9D8980;" points="6,21 2,21 2,26 6,26   "/>
	</g>
	<g>
		<rect x="26" y="45" style="fill:#B9ABA5;" width="24" height="6"/>
	</g>
	<g>
		<rect x="14" y="45" style="fill:#B9ABA5;" width="8" height="6"/>
	</g>
	<g>
		<rect x="6" y="13" style="fill:#657B88;" width="56" height="32"/>
	</g>
	<g>
		<path style="fill:#7B909B;" d="M6,33.752C10.672,38.238,17.012,41,24,41c14.359,0,26-11.641,26-26c0-0.674-0.034-1.339-0.084-2H6    V33.752z"/>
	</g>
	<g>
		<circle style="fill:#E4F5FD;" cx="40" cy="29" r="12"/>
	</g>
	<g>
		<circle style="fill:#FFFFFF;" cx="40" cy="29" r="4"/>
	</g>
	<g>
		<polyline style="fill:#B9ABA5;" points="6,41 10,41 10,32 6,32   "/>
	</g>
	<g>
		<polyline style="fill:#B9ABA5;" points="6,28 10,28 10,19 6,19   "/>
	</g>
	<g>
		<rect x="14" y="17" style="fill:#B9ABA5;" width="4" height="6"/>
	</g>
	<g>
		<rect x="14" y="27" style="fill:#B9ABA5;" width="4" height="6"/>
	</g>
	<g>
		<path d="M62,46H6c-0.553,0-1-0.447-1-1V13c0-0.553,0.447-1,1-1h56c0.553,0,1,0.447,1,1v32C63,45.553,62.553,46,62,46z M7,44h54V14    H7V44z"/>
	</g>
	<g>
		<path d="M50,52H26c-0.553,0-1-0.447-1-1v-6c0-0.553,0.447-1,1-1h24c0.553,0,1,0.447,1,1v6C51,51.553,50.553,52,50,52z M27,50h22    v-4H27V50z"/>
	</g>
	<g>
		<rect x="29" y="45" width="2" height="6"/>
	</g>
	<g>
		<rect x="33" y="45" width="2" height="6"/>
	</g>
	<g>
		<rect x="37" y="45" width="2" height="3"/>
	</g>
	<g>
		<rect x="41" y="45" width="2" height="6"/>
	</g>
	<g>
		<rect x="45" y="45" width="2" height="3"/>
	</g>
	<g>
		<path d="M22,52h-8c-0.553,0-1-0.447-1-1v-6c0-0.553,0.447-1,1-1h8c0.553,0,1,0.447,1,1v6C23,51.553,22.553,52,22,52z M15,50h6v-4    h-6V50z"/>
	</g>
	<g>
		<rect x="17" y="45" width="2" height="6"/>
	</g>
	<g>
		<path d="M40,42c-7.168,0-13-5.832-13-13s5.832-13,13-13s13,5.832,13,13S47.168,42,40,42z M40,18c-6.065,0-11,4.935-11,11    s4.935,11,11,11s11-4.935,11-11S46.065,18,40,18z"/>
	</g>
	<g>
		<path d="M10,42H6v-2h3v-7H6v-2h4c0.553,0,1,0.447,1,1v9C11,41.553,10.553,42,10,42z"/>
	</g>
	<g>
		<path d="M6,40H2c-0.553,0-1-0.447-1-1v-5c0-0.553,0.447-1,1-1h4v2H3v3h3V40z"/>
	</g>
	<g>
		<path d="M10,29H6v-2h3v-7H6v-2h4c0.553,0,1,0.447,1,1v9C11,28.553,10.553,29,10,29z"/>
	</g>
	<g>
		<path d="M6,27H2c-0.553,0-1-0.447-1-1v-5c0-0.553,0.447-1,1-1h4v2H3v3h3V27z"/>
	</g>
	<g>
		<path d="M18,24h-4c-0.553,0-1-0.447-1-1v-6c0-0.553,0.447-1,1-1h4c0.553,0,1,0.447,1,1v6C19,23.553,18.553,24,18,24z M15,22h2v-4    h-2V22z"/>
	</g>
	<g>
		<path d="M18,34h-4c-0.553,0-1-0.447-1-1v-6c0-0.553,0.447-1,1-1h4c0.553,0,1,0.447,1,1v6C19,33.553,18.553,34,18,34z M15,32h2v-4    h-2V32z"/>
	</g>
	<g>
		<path d="M40,34c-2.757,0-5-2.243-5-5s2.243-5,5-5s5,2.243,5,5S42.757,34,40,34z M40,26c-1.654,0-3,1.346-3,3s1.346,3,3,3    s3-1.346,3-3S41.654,26,40,26z"/>
	</g>
	<g>
		<path d="M37.152,25.707C37.052,25.203,37,24.687,37,24.172v-0.344c0-2.061,0.836-4.078,2.293-5.535l2-2l1.414,1.414l-2,2    C39.622,20.792,39,22.294,39,23.828v0.344c0,0.383,0.038,0.767,0.113,1.141L37.152,25.707z"/>
	</g>
	<g>
		<path d="M38.707,41.707l-1.414-1.414l2-2C40.378,37.208,41,35.706,41,34.172v-0.344c0-0.37-0.035-0.742-0.105-1.104l1.963-0.381    C42.952,32.831,43,33.33,43,33.828v0.344c0,2.061-0.836,4.078-2.293,5.535L38.707,41.707z"/>
	</g>
	<g>
		<path d="M51.293,31.707l-2-2C48.208,28.622,46.706,28,45.172,28h-0.344c-0.383,0-0.767,0.038-1.141,0.113l-0.395-1.961    C43.797,26.052,44.313,26,44.828,26h0.344c2.061,0,4.078,0.836,5.535,2.293l2,2L51.293,31.707z"/>
	</g>
	<g>
		<path d="M35.172,32h-0.344c-2.061,0-4.078-0.836-5.535-2.293l-2-2l1.414-1.414l2,2C31.792,29.378,33.294,30,34.828,30h0.344    c0.37,0,0.742-0.035,1.104-0.105l0.381,1.963C36.169,31.952,35.67,32,35.172,32z"/>
	</g>
	<g>
		<path d="M48,39h-2v-3.172c0-1.534-0.622-3.036-1.707-4.121c-0.298-0.298-0.627-0.562-0.979-0.787l1.076-1.686    c0.474,0.303,0.917,0.659,1.316,1.059C47.164,31.75,48,33.768,48,35.828V39z"/>
	</g>
	<g>
		<path d="M35.486,28.685c-0.428-0.284-0.829-0.613-1.193-0.978C32.836,26.25,32,24.232,32,22.172V19h2v3.172    c0,1.534,0.622,3.036,1.707,4.121c0.271,0.271,0.569,0.516,0.887,0.728L35.486,28.685z"/>
	</g>
	<g>
		<path d="M33.172,37H30v-2h3.172c1.534,0,3.036-0.622,4.121-1.707c0.295-0.295,0.561-0.625,0.788-0.98l1.684,1.08    c-0.306,0.476-0.661,0.918-1.058,1.314C37.25,36.164,35.232,37,33.172,37z"/>
	</g>
	<g>
		<path d="M41.979,25.594l-1.664-1.107c0.284-0.428,0.613-0.829,0.978-1.193C42.75,21.836,44.768,21,46.828,21H50v2h-3.172    c-1.534,0-3.036,0.622-4.121,1.707C42.436,24.979,42.191,25.276,41.979,25.594z"/>
	</g>
	<g>
		<rect x="57" y="16" width="2" height="2"/>
	</g>
	<g>
		<rect x="57" y="40" width="2" height="2"/>
	</g>
	<g>
		<rect x="21" y="16" width="2" height="2"/>
	</g>
	<g>
		<rect x="21" y="40" width="2" height="2"/>
	</g>
</g>
</svg>
