<?xml version="1.0" encoding="utf-8"?>
<!-- Generator: Adobe Illustrator 23.0.3, SVG Export Plug-In . SVG Version: 6.00 Build 0)  -->
<svg version="1.1" id="Layer_3" xmlns="http://www.w3.org/2000/svg" xmlns:xlink="http://www.w3.org/1999/xlink" x="0px" y="0px"
	 viewBox="0 0 512 512" style="enable-background:new 0 0 512 512;" xml:space="preserve">
<style type="text/css">
	.st0{fill:#B9ABA5;}
	.st1{fill:#657B88;}
	.st2{fill:#7B909B;}
	.st3{fill:#E4F5FD;}
	.st4{fill:#9D8980;}
	.st5{fill:#FFFFFF;}
	.st6{fill:#434E5C;}
</style>
<g>
	<rect x="208" y="360" class="st0" width="192" height="48"/>
	<rect x="112" y="360" class="st0" width="64" height="48"/>
	<rect x="48" y="104" class="st1" width="448" height="256"/>
	<path class="st2" d="M48,270c37.4,35.9,88.1,58,144,58c114.9,0,208-93.1,208-208c0-5.4-0.3-10.7-0.7-16H48V270z"/>
	<circle class="st3" cx="320" cy="232" r="96"/>
	<polyline class="st4" points="48,272 16,272 16,312 48,312 	"/>
	<polyline class="st4" points="48,168 16,168 16,208 48,208 	"/>
	<circle class="st5" cx="320" cy="232" r="32"/>
	<polyline class="st0" points="48,328 80,328 80,256 48,256 	"/>
	<polyline class="st0" points="48,224 80,224 80,152 48,152 	"/>
	<rect x="112" y="136" class="st0" width="32" height="48"/>
	<rect x="112" y="216" class="st0" width="32" height="48"/>
	<rect x="232" y="360" class="st4" width="16" height="48"/>
	<rect x="264" y="360" class="st4" width="16" height="48"/>
	<rect x="296" y="360" class="st4" width="16" height="24"/>
	<rect x="328" y="360" class="st4" width="16" height="48"/>
	<rect x="360" y="360" class="st4" width="16" height="24"/>
	<rect x="136" y="360" class="st4" width="16" height="48"/>
	<path class="st6" d="M405.7,226.3C394,214.7,377.9,208,361.4,208h-2.8c-2.2,0-4.4,0.1-6.5,0.4c-3-4-6.6-7.5-10.9-10.1
		c0.2-0.2,0.3-0.4,0.5-0.6c8.7-8.7,20.7-13.7,33-13.7H403c-3.3-5.7-7.2-11.1-11.6-16h-16.8c-16.5,0-32.6,6.7-44.3,18.3
		c-1.9,1.9-3.7,4-5.3,6.2c-1.7-0.2-3.3-0.5-5-0.5c-2.7,0-5.4,0.3-8,0.8v-2.2c0-12.3,5-24.3,13.7-33l18.5-18.5
		c-6.3-1.6-12.9-2.6-19.7-3l-10.1,10.1C302.7,158,296,174.1,296,190.6v2.8c0,2.2,0.1,4.4,0.4,6.5c-4,3-7.5,6.6-10.1,10.9
		c-0.2-0.2-0.4-0.3-0.6-0.5c-8.7-8.7-13.7-20.7-13.7-33V149c-5.7,3.3-11.1,7.2-16,11.6v16.8c0,16.5,6.7,32.6,18.3,44.3
		c1.9,1.9,4,3.7,6.2,5.3c-0.2,1.7-0.5,3.3-0.5,5c0,2.7,0.3,5.4,0.8,8h-2.2c-12.3,0-24.3-5-33-13.7l-18.5-18.5
		c-1.6,6.3-2.6,12.9-3,19.7l10.1,10.1c11.6,11.6,27.8,18.3,44.3,18.3h2.8c2.2,0,4.4-0.1,6.5-0.4c3,4,6.7,7.5,10.9,10.2
		c-0.2,0.2-0.3,0.4-0.5,0.5c-8.7,8.7-20.7,13.7-33,13.7H237c3.3,5.7,7.2,11.1,11.6,16h16.8c16.5,0,32.6-6.7,44.3-18.3
		c1.9-1.9,3.7-4,5.3-6.2c1.7,0.2,3.3,0.5,5,0.5c2.7,0,5.4-0.3,8-0.8v2.2c0,12.3-5,24.3-13.7,33l-18.5,18.5c6.3,1.6,12.9,2.6,19.7,3
		l10.1-10.1c11.6-11.6,18.3-27.8,18.3-44.3v-2.8c0-2.2-0.1-4.4-0.4-6.5c4-3,7.5-6.7,10.2-10.9c0.2,0.2,0.4,0.3,0.5,0.5
		c8.7,8.7,13.7,20.7,13.7,33V315c5.7-3.3,11.1-7.2,16-11.6v-16.8c0-16.5-6.7-32.6-18.3-44.3c-1.9-1.9-4-3.7-6.2-5.3
		c0.2-1.7,0.5-3.3,0.5-5c0-2.7-0.3-5.4-0.8-8h2.2c12.3,0,24.3,5,33,13.7l18.5,18.5c1.6-6.3,2.6-12.9,3-19.7L405.7,226.3z M320,256
		c-13.2,0-24-10.8-24-24s10.8-24,24-24s24,10.8,24,24S333.2,256,320,256z"/>
	<rect x="456" y="128" class="st6" width="16" height="16"/>
	<rect x="456" y="320" class="st6" width="16" height="16"/>
	<rect x="168" y="128" class="st6" width="16" height="16"/>
	<rect x="168" y="320" class="st6" width="16" height="16"/>
</g>
</svg>
