<svg id="Calque_1" data-name="Calque 1" xmlns="http://www.w3.org/2000/svg" viewBox="0 0 581.28 752"><defs><style>.cls-1{fill:#c3706f;}.cls-2{fill:#c06666;}.cls-3{fill:#c77677;}.cls-4{fill:#dab7b7;}.cls-5{fill:#d0abaa;}.cls-6{fill:#e5d1d1;}.cls-7{fill:#caa1a0;}.cls-8{fill:#cb9391;}.cls-9{fill:#efdcdd;}.cls-10{fill:#e0c7c6;}.cls-11{fill:#e0c3c3;}.cls-12{fill:#debbbb;}.cls-13{fill:#e4cccd;}.cls-14{fill:#fefdfd;}.cls-15{fill:#e7d4d4;}.cls-16{fill:#c98282;}.cls-17{fill:#ca8887;}.cls-18{fill:#d9aead;}.cls-19{fill:#d0a19f;}.cls-20{fill:#e8d6d6;}.cls-21{fill:#ca908f;}.cls-22{fill:#c98f8f;}.cls-23{fill:#b87b7a;}.cls-24{fill:#c98484;}.cls-25{fill:#a86d6d;}.cls-26{fill:#925b5a;}.cls-27{fill:#744342;}.cls-28{fill:#8c5756;}.cls-29{fill:#7c4949;}</style></defs><title>embryo</title><path class="cls-1" d="M230.47,389.44l9.94-16c-2.57-2.68-5.13-2.3-7.22-.2-8,8-17.13,11.26-28.49,8.71-5.13-1.15-10.61-.79-15.93-1-19.22-.88-28.92-9.85-30.74-29.11-1-10.43-.84-21-2-31.37-1.26-11-2.46-12.27-13.41-13.83-17.19-2.45-24.61-14.51-29.44-29-5.23-15.66-3.22-31.65-.69-47.48,9.88-61.91,46.11-105.24,97.92-137,24.11-14.8,50.6-23,79.22-22.07,19.53.66,36.29,7.81,48.26,24.1,1.87,2.55,4,4.93,5.64,7.63,17.07,28.56,42.69,49.14,66.55,71.35,21.14,19.68,41.24,40.28,57.41,64.37,17.08,25.44,27,53.09,27.77,84.08.79,31.86-5.33,62.56-13.23,93.08-9.65,37.23-20.71,74-37,109-11.24,24.09-24.81,46.74-42,67.12-2.13,2.53-4.55,4.82-6.84,7.23L395,597.79c0-.63.07-1.26.1-1.88v0l3-3h0l1.41-1,.6-.73,3-5.27,0,0,3.15-3.09a1,1,0,0,0-.12-.94l0,0,6.94-8.06,2-3h0q6.08-9.45,12.13-18.91c0-.35-.05-.71-.07-1.07v0q2.49-4,5-8h0l1-1c4.62-9.3,9.69-18.42,13.75-28,4.78-11.19,8.69-22.76,13-34.17l12.47-39.68c.19-.42.37-.85.56-1.27q2.3-9.81,4.57-19.62l1.34-2.46.21-1.86a10.4,10.4,0,0,0,1.07-2.1c7.78-31.06,14.83-62.26,12-94.62-1-11-3.19-21.89-4.94-32.81-.16-1-1.15-1.78-1.76-2.66q-1.44-4.37-2.9-8.75c-1.28-3.64-2.24-7.44-3.88-10.91-11-23.1-26.42-43.11-44.25-61.13C417.08,184.52,399,168,381.07,151.39A254.61,254.61,0,0,1,342.5,105.8c-6.68-10-14.08-19.28-25.25-25-16.41-8.34-33.79-8.3-51.14-5.62C239.5,79.32,215.89,91.07,194,106.4c-15.21,10.68-28.14,23.89-39.95,38.14-4.94,6-8.86,12.78-13.25,19.2l-2,3c-3.5,5.81-7.54,11.37-10.39,17.48-11.49,24.65-16,50.81-15.47,77.86.47,24.14,12.24,37.89,35.59,43,2.86.63,5.87,3.56,7.46,6.23,2,3.42,2.72,7.65,4,11.53q.12,4.42.23,8.86c-.07,5.4-.24,10.8-.16,16.19,0,1.09,1,2.16,1.55,3.24l-.06,1.72c.11,1.34.21,2.68.32,4,.48,10.6,10.21,22.21,26.16,21.08a17.26,17.26,0,0,0,3.33.83c7.25.41,14.53.47,21.75,1.13,6.17.57,10.87-1.71,14.86-6.08l0,0,1-1,8.17-5.09.86-.93,0,.05,2.88-3.08,6.1.7c-.32,2.95-.57,5.32-.82,7.68L235,385.92l0,0c-.35.68-.69,1.36-1,2l0,0-1,1,0,0L231.09,390A7.75,7.75,0,0,0,230.47,389.44Z"/><path class="cls-1" d="M384,610.88a214.82,214.82,0,0,1-64.91,41.29c-21.27,8.77-43.35,15-66.49,13.31C200,661.61,155.88,640.86,124.8,596.8c-16.28-23.07-23.6-49.4-24.67-77.4-1.64-43.27,13.09-80.35,43.92-110.68,15.5-15.25,34.5-23.68,56.44-24.27a63,63,0,0,1,16.71,2.32c5.76,1.43,8,5.2,7.9,11.06,0,.68,0,1.37-.07,2.06v0c-.67.68-1.35,1.35-2,2-3.31,1-6.56,2.32-9.93,3.05-9.23,2-19,2.54-27.66,5.87-30.29,11.63-49.31,45.83-44.14,78.38,1.16,7.3,3,14.84,10.72,18.69.66,2.68,1.33,5.36,2,8-2.7-2.9-5.8-5.53-8-8.77-2.46-3.66-4.86-7.68-5.95-11.88-5-19.24-1.49-37.42,8-54.58,13-23.49,33.17-35.74,59.83-37.94,4.44-.37,8.75-2.45,13.12-3.74,2.91-2.9,2.42-4.73-1.89-7.23l-.05,0L215,389.62l-8.91-2-5.22-.47-4.62.19L177,392.09l-8.08,3.72c-1.75.41-3.74.41-5.21,1.29-11.2,6.7-21.15,14.87-28.76,25.63-10.36,11.53-17.64,24.89-23.15,39.26-9.6,25-11.07,50.75-6.91,77a138.11,138.11,0,0,0,37.82,76c20.67,21.38,46.15,34.83,74.59,42.28,12.23,3.2,25.16,3.73,37.76,5.48l6.8-.08,8.42-1.43,3.57.42L277,661l1.91-.18a17.37,17.37,0,0,0,3-.06A192.76,192.76,0,0,0,340.49,639c7.13-4,13.7-9.07,20.53-13.64l8-5.44v0l2-2h0l6-4h0l6-4.05Z"/><path class="cls-2" d="M226.21,398.13l2-4.22a3.27,3.27,0,0,0,.54,0l-.47,3.6,1,.27,1.75-5.85,0,0c.67-1,1.34-2,2-3l0,0,1-1,0,0c.34-.68.68-1.36,1-2l0,0,2-.12c0,1,0,2.06,0,3.1-4.36,8.81-7.39,18-7,28,0,3,0,5.93,0,8.89-.29,1-.59,2.06-.88,3.09l1.85,3.07,0,0,1,1,0,0,1,1,0,0,1.05,1.05-.05,0,1,1.14c1.82,5,6.19,3.42,8.75,2.2a86.1,86.1,0,0,0,14.85-9.52c5-3.84,9.74-8.2,16.62-7.74,1.38.1,2.68,1.39,4.8,2.57-5.2,1.5-9.19,1.89-12.32,3.72-7.11,4.16-13.79,9-20.65,13.63-8.47,1.91-16.58,4.48-22,12-.33-3.55-1.16-7.14-.88-10.64a15.81,15.81,0,0,0-5.35-13.74c.41-2.55.81-5.09,1.22-7.63l2-3.79-.15-3.29a2.57,2.57,0,0,0-.62,0l.56-1a4.29,4.29,0,0,0,.94.15l1.45-2.09.79-1,.08-3,.14-.85-1.42-.16,1-4.05.21-1.94v0Zm1.45,1.1h-.3l-.06,1.06.32,0Z"/><path class="cls-3" d="M395,597.79l1.21,1.19-6.63,6.71c-.27-.35-.54-.69-.8-1,.11-.57.21-1.15.32-1.72h0l1-1,0,0,1-1,0,0,1-1,0,0,1.43-1a.89.89,0,0,0,.59-.63Z"/><path class="cls-3" d="M384,610.88l-1-1,.5-1L385,607.4l1.71-.81,1,.84Z"/><path class="cls-1" d="M228.79,393.87a3.27,3.27,0,0,1-.54,0q1.11-2.24,2.23-4.47c.21.16.41.34.61.52,0,.65-.06,1.3-.08,2l0,0Z"/><path class="cls-4" d="M226.21,398.13,225,399.89c0-.69,0-1.38.07-2.06Z"/><path class="cls-3" d="M389.53,605.69l-1,1-.74-1.05,1-1Z"/><path class="cls-3" d="M388.49,606.69l-.75.73-1-.83,1-1Z"/><path class="cls-5" d="M385,607.4l-1.52,1.52c-3.66-.26-5.67,1.61-6.47,5h0l-6,4h0l-2,2v0l-8,5.44c-6.83,4.57-13.4,9.6-20.53,13.64a192.76,192.76,0,0,1-58.58,21.71,17.37,17.37,0,0,1-3,.06l5.32-3.3c-.32-.15-.61-.41-.87-.39-11.84.59-23.68,1.3-35.52,1.75-2.94.11-5.91-.61-8.86-.94l-2-.86-.19.69,2.21.15c1.77.68,3.5,1.48,5.31,2,3.56,1,7.17,1.9,10.77,2.84-12.61-1.75-25.54-2.28-37.77-5.48-28.44-7.45-53.92-20.9-74.59-42.28a138.11,138.11,0,0,1-37.82-76c-4.16-26.25-2.69-52,6.91-77,5.51-14.37,12.79-27.73,23.15-39.26a12.24,12.24,0,0,1-4.69,11.15l-1.28,2,0,0-1,1,0,0-1,3,0,0-1,2,0,0-1,2,0,0-1,2,0-.05-1,2.07c-1.22,1.42-2.84,2.65-3.6,4.28-7.88,16.94-11.57,35.08-12,53.48-.36,13.44,1.44,27.13,3.89,40.41,4.42,24,14.74,45.44,32.34,62.63,10,9.75,21.91,17,34.45,23.31,21,10.63,43.4,15.32,66.54,16.71a193.92,193.92,0,0,0,47.1-2.85c19.46-3.62,37.82-10.16,54.58-20.66,24.6-15.41,43.85-36.3,60.18-60.07,17.37-25.27,29.91-52.86,39.56-81.82a1018.52,1018.52,0,0,0,32.27-123.57c3.78-19,5.17-38.12,2.71-57.36-2.38-18.5-8.93-35.7-18.51-51.58-11.83-19.62-26.71-36.61-47.48-47.12-8.47-4.3-18-6.62-27-9.84l-4-2-4-3-1.05-2c-2.81-2.55-5.39-5.41-8.45-7.61-16-11.54-28.37-26.15-38.62-43a157.67,157.67,0,0,0-21-27.62c-12.33-12.74-28-16-45.36-12.51-23.1,4.62-43.45,15.17-62.51,28.48-4.08,2.84-7.37,6.8-11,10.25-.33.34-.66.67-1,1-1.21.4-2.77.44-3.59,1.24-9.59,9.34-19.27,18.6-26.2,30.26-2.55,4.28-5.46,8.35-8.2,12.52-.32-5.15-.64-10.29-1-16.44-1.16,1.74-2.25,2.87-2.75,4.22-6.49,17.32-12.85,34.68-19.35,52-.58,1.55-1.82,2.84-2.76,4.25a123.76,123.76,0,0,1,42.19-84c2.08-1.79,3.89-3.9,5.82-5.86l-1.37-1.42c-4.75,3.75-9.89,7.11-14.17,11.34-6.43,6.38-12.27,13.38-18.36,20.11l-.4-.37c4.39-6.42,8.31-13.23,13.25-19.2,11.81-14.25,24.74-27.46,39.95-38.14,21.86-15.33,45.47-27.08,72.08-31.18,17.35-2.68,34.73-2.72,51.14,5.62,11.17,5.68,18.57,15,25.25,25a254.61,254.61,0,0,0,38.57,45.59c17.93,16.62,36,33.13,53.19,50.51,17.83,18,33.29,38,44.25,61.13,1.64,3.47,2.6,7.27,3.88,10.91l-1.42-.28c1.78,13.81,3.54,27.44,5.3,41.08a6.87,6.87,0,0,0,1.72-5c-.81-9-1.78-18-2.7-27.06.61.88,1.6,1.71,1.76,2.66,1.75,10.92,4,21.81,4.94,32.81,2.85,32.36-4.2,63.56-12,94.62a10.4,10.4,0,0,1-1.07,2.1,17.49,17.49,0,0,1-.35-4.11c.63-4.41,1.47-8.79,2.42-14.3l-25.79,90.7c1.1-1.77,2.83-4.58,4.57-7.4-4.28,11.41-8.19,23-13,34.17-4.06,9.54-9.13,18.66-13.75,28l-1,1h0q-2.51,4-5,8v0l-.59.54.66.53q-6.06,9.45-12.13,18.91l1.56-6.43-1.43-.69L406.05,582l0,0-1.08,1L403,586l0,0-3,5.27-.6.73-1.41,1h0l-3,3v0l-1,2.37a.89.89,0,0,1-.59.63l-1.43,1,0,0-1,1,0,0-1,1,0,0-1,1h0ZM209.88,107.07l.94.61L246.4,90.61c-.83-1-1-1.34-1.25-1.4a4.77,4.77,0,0,0-1.94-.16,83.47,83.47,0,0,0-31.38,14.45C210.84,104.23,210.52,105.86,209.88,107.07Zm169.46,77.34c.29-.5.6-.81.54-1s-.46-.34-.71-.5Z"/><path class="cls-3" d="M247,440.9c6.86-4.59,13.54-9.47,20.65-13.63,3.13-1.83,7.12-2.22,12.32-3.72-2.12-1.18-3.42-2.47-4.8-2.57-6.88-.46-11.58,3.9-16.62,7.74a86.1,86.1,0,0,1-14.85,9.52c-2.56,1.22-6.93,2.77-8.75-2.2l.42-.9-1.4-.24.05,0L233,433.88l0,0-1-1,0,0-1-1,0,0c-.36-1-.71-2-1.07-3,0-1,.07-2.09.1-3.14,0-3,0-5.92,0-8.89.84.7,2,1.24,2.46,2.14,2.29,4.39,5.75,5.65,9.91,4.54,4.83-8.79,9.47-17.17,14-25.59.79-1.45,1.21-3.09,1.87-4.61,1.65-3.79.18-6.84-2.45-9.43s-6-2.69-9.17-.86S240.23,387,237,388.9c0-1,0-2.07,0-3.1l11.17-13.4-2-.18c.25-2.36.5-4.73.82-7.68l-6.1-.7,2.88-5.06,2.33,3.93c4.82-4.17,9.16-14.24,7.88-18.21l-2.81.36c-6.93,5.84-11.07,13.34-13.16,22.06l0-.05-.86.93L229,372.89l-1,1,0,0a12.48,12.48,0,0,0-3,.2c-14.16,4.38-28.17,3.52-42.07-1.19h0l-2.92-2.05-.23.07-9.88-9c-1.25-3.88-2.45-7.79-3.78-11.65a47.55,47.55,0,0,0-2.06-4.49q.13-5.34.25-10.68,3.33-8.07,6.65-16.15l9.94-8.07,2.09.09q-3.18,4.94-6.34,9.88l1.41,1.08c5.24-2.4,7.66-7.61,10.86-12l.51.55.5-.57h0c2.39.49,4.92,1.73,7.14,1.3,5.67-1.08,11.2-2.91,16.79-4.42,10.74-2.89,20.88-3.44,29,6.26,1.23,1.46,4.07,1.56,6.16,2.29l-.33-1.78c5.23-2.87,10.18-6.88,15.78-8.3s11.77-.2,17.69-.14l0,1.29,3.12-2.43c.83,2.64,1.52,4.82,2.21,7l-.41,1.15c13.26,6.41,26.18,13.69,39.87,19,10.7,4.11,22.21,6.68,34,5.81l16-5a14.22,14.22,0,0,1-8.62,10.72c-7.83,3.6-16,3.39-24.22,1.81-15.43-3-29-10.1-41.56-19.31-4.79-3.51-9.72-6.83-14.59-10.23-4.42-3.56-7.87-9.2-15-7-3.93,1.3-4.38,4.52-4.41,8L267,317l-2,.16-4-2.68c-1.43,5-2.79,9.55-4,14.13a38.45,38.45,0,0,0-1,5.33c-1,8.67,1.79,15.8,7.93,22.06,11.15,11.37,21.88,23.35,36.65,30.06,12.45,5.64,26,7.3,39.52,8.78l10.84.06,3.05,0c.55.31,1.12.9,1.65.88,8.22-.39,16.55-.15,24.6-1.53,5.79-1,11.21-4.15,16.79-6.35l-.05,0,1-.1,1-.93,0,0,2-1-.05,0c.35-.35.7-.69,1-1l0,0,2.06-1-.05,0,1-1,0,0,1-1,0,0,1-1,0,0,1-1,0,0,1-1,0,0,1-1h0l1-1h0l2-2h0l1-1,9-14,2-4.95,4-22c1.33,3.75,3.41,7.42,3.86,11.28,1.62,13.93-2.89,26.08-11.88,36.69a41.14,41.14,0,0,1-3.25,3.7c-13.89,12.34-30.23,18.57-48.72,19.35-24.31.41-47.89-2.85-69.72-14.21-4.08,2.57-8,4.79-11.61,7.39-4.26,3.06-7.8,6.81-8.6,12.32-.66,4.59,2,9,8,11.37,9.84,3.93,14.17,10.44,13.13,21.24-.49,5.06,1.18,10.34,2.1,17.18l-6.15,7.7c10.54,8.95,15.15,17.36,17,27.54,2.65,14.87-1.18,28.68-6.19,42.22-3.31,9-7.92,17.48-11.95,26.19-1.93,2.21-3.76,4.51-5.8,6.61-6,6.21-12.13,12.34-18.21,18.5.78-1.42,1.5-2.87,2.36-4.24s1.76-2.49,2.66-3.73l1-1.12,0,0,2-4h0l1-1,0,0c.33,0,.66,0,1,0,1.55-1.13,3.49-2,4.59-3.42,11.48-15.25,19.9-32,24-50.75,2.53-11.62,3.35-23.24-1.69-34.37-2.39-5.3-4.78-11-10.86-13.49-6.22-4.77-12.81-8.24-21-6a17,17,0,0,0-14,7h0l-1,1,0,0L259.92,475c-2.75,4.48-5.33,9.06-8.28,13.39-4.44,6.49-8.56,7.82-15.64,5.52l-3.68-4-2.31-3,0,0c-.34-.68-.68-1.36-1-2l0,0-1-1.48q-1.59-5.34-3.16-10.7l-2.82-12-.14-11.06c0-2.25.05-4.51.08-6.76.34-5.23.14-10.17-7-12.15l-4.11,2.89-2.65.47-7.21-.28-2.8-.32c-.33-.47-.65-.95-1.21-1.77-.54.83-.87,1.31-1.19,1.8L193,435.86h0l-2,2,0,0h-1l-3,1.83-5,.18c-3.86-2.51-5.32.68-6.82,3.1a66.42,66.42,0,0,0-3.34,7.21l-11.45-2.45c-4.68,7.08-7.21,14.23-7.37,22.18-.22,8.52-1.48,17.17-.45,25.54,2.14,17.49,8,34.08,14.54,50.41,3.8,9.58,8.09,18.88,15.86,26l2,2.25.71.76,1.29,1h0l1,1h0l2,1v0l1,1.3c4.59,6.11,11.22,9,18.06,11.66l2,.07,0,0,2.26,1.06.43-.07,2.36,1,0,0c.3.38.53,1,.91,1.12,13.4,4.09,26.81,6.09,40.18-.13l-.07,0,2.06-1-.05,0,1-1,7-2c-1.65,1.49-3.09,3.35-5,4.4-11.77,6.6-24.51,6.89-37.21,4.28-28.44-5.85-48.23-22.44-58.87-49.56-4.17-10.64-7.95-21.42-11.91-32.14.12-.09.38-.25.36-.28a5.53,5.53,0,0,0-.42-.69v0c-.66-2.68-1.33-5.36-2-8a30.91,30.91,0,0,0-.42-4.43c-3.68-15.54-2.74-31,1.52-46.19,1.35-4.85,2.92-9.95,8.48-12.46l8.4,3.25c1.14-2.29,2.11-4.18,3-6.09,1.66-3.45,4.32-4.91,8.2-5.48a25.49,25.49,0,0,0,9.68-3.88c3.14-2,5.91-3.24,9.71-2a16.29,16.29,0,0,0,7.18.55c3.72-.54,7.34-1.72,11-2.63a15.81,15.81,0,0,1,5.35,13.74c-.28,3.5.55,7.09.88,10.64-1,9.34,1.34,18.08,5.49,27.47,2-1.29,2.94-3.3,4.42-4.8,6.06-6.18,12.59-11.65,20.93-14.76,3.42-1.27,6.31-3.94,8.87-5.61.46-8.3-3.5-12.8-10.54-13.33C251.77,441.69,249.39,441.23,247,440.9Zm36.74,21.6c.36-12.82-14.75-28-24.23-23.21,11.19,4.48,19.2,11.3,20.87,23.42Zm-96-144.83-1.27-.22v6.18l.26,0Q187.28,320.67,187.78,317.67Z"/><path class="cls-5" d="M171,318.94q-3.32,8.07-6.65,16.15-.67-8.86-1.34-17.74l-1.37.14c-.54,1.8-1.09,3.6-1.63,5.4-1.27-3.88-1.95-8.11-4-11.53-1.59-2.67-4.6-5.6-7.46-6.23-23.35-5.14-35.12-18.89-35.59-43-.53-27.05,4-53.21,15.47-77.86,2.85-6.11,6.89-11.67,10.39-17.48l.39.36a51.43,51.43,0,0,1-2.41,5.93c-9.8,17.58-14.87,36.3-13.7,56.5.08,1.45,1.82,2.81,2.79,4.22,0,2.28.07,4.57.1,6.85-.2,1.35-.83,2.79-.55,4,1,4.39,2.38,8.7,3.6,13,2.2,4.13,3.63,9,6.76,12.26,7.57,7.83,15.84,15,24,22.25S172.4,307.89,171,318.94Z"/><path class="cls-6" d="M459.79,479.77c-1.74,2.82-3.47,5.63-4.57,7.4L481,396.47c-.95,5.51-1.79,9.89-2.42,14.3a17.49,17.49,0,0,0,.35,4.11l-.21,1.86c-.44.82-.89,1.64-1.34,2.46q-2.28,9.81-4.57,19.62c-.18.42-.37.85-.56,1.27Q466,459.94,459.79,479.77Z"/><path class="cls-6" d="M160,322.89c.54-1.8,1.09-3.6,1.63-5.4l1.37-.14q.66,8.86,1.34,17.74-.12,5.34-.25,10.68c-.75,6.36,1.71,11.55,5.84,16.14l9.88,9c-8.44-1.11-13.3-6.28-15.93-14q-1.17-2-2.32-4l.06-1.72c.1-5.6.26-11.19.2-16.78,0-.89-1-1.77-1.59-2.65Q160.16,327.31,160,322.89Z"/><path class="cls-7" d="M163.92,356.91c2.63,7.72,7.49,12.89,15.93,14l.23-.07,2.92,2.05h0l5.08,5.11c-16,1.13-25.68-10.48-26.16-21.08Z"/><path class="cls-8" d="M188.08,378,183,372.89c13.9,4.71,27.91,5.57,42.07,1.19a12.48,12.48,0,0,1,3-.2c-4,4.37-8.69,6.65-14.86,6.08-7.22-.66-14.5-.72-21.75-1.13A17.26,17.26,0,0,1,188.08,378Z"/><path class="cls-9" d="M485.29,282.69c.92,9,1.89,18,2.7,27.06a6.87,6.87,0,0,1-1.72,5c-1.76-13.64-3.52-27.27-5.3-41.08l1.42.28Q483.85,278.32,485.29,282.69Z"/><path class="cls-10" d="M243.75,358.78l-2.88,5.06L238,366.92c2.09-8.72,6.23-16.22,13.15-22.05Z"/><path class="cls-10" d="M406.05,582l9.09-18.16,1.43.69L415,570.91h0l-2,3Z"/><path class="cls-11" d="M246.15,372.22l2,.18L237,385.8l-2,.12Z"/><path class="cls-5" d="M160.27,331.75c.56.88,1.59,1.76,1.59,2.65.06,5.59-.1,11.18-.2,16.78-.54-1.08-1.53-2.15-1.55-3.24C160,342.55,160.2,337.15,160.27,331.75Z"/><path class="cls-12" d="M427.07,551q2.49-4,5-8Q429.56,546.94,427.07,551Z"/><path class="cls-5" d="M163.92,356.91h-2c-.11-1.34-.21-2.68-.32-4Q162.76,354.91,163.92,356.91Z"/><path class="cls-13" d="M400,591.18l3-5.27Z"/><path class="cls-13" d="M395,595.94l3-3Z"/><path class="cls-13" d="M403,586l1.95-3.06,1.2,0Z"/><path class="cls-5" d="M413,573.89l2-3Z"/><path class="cls-5" d="M138.86,166.76l2-3,.4.37-2,3Z"/><path class="cls-5" d="M477.39,419.2c.45-.82.9-1.64,1.34-2.46Z"/><path class="cls-4" d="M231,391.91c0-.65.05-1.3.08-2l1.94-1.08C232.35,389.89,231.68,390.9,231,391.91Z"/><path class="cls-4" d="M235,385.88c-.35.68-.69,1.36-1,2C234.34,387.24,234.68,386.56,235,385.88Z"/><path class="cls-13" d="M394,598.28l1-2.37c0,.62-.06,1.25-.1,1.88Z"/><path class="cls-12" d="M432,542.94l1-1Z"/><path class="cls-12" d="M427.14,552l-.66-.53.59-.54C427.09,551.29,427.12,551.65,427.14,552Z"/><path class="cls-4" d="M234,387.88l-1,1Z"/><path class="cls-10" d="M406.19,582.86l-1.2,0,1.08-1A1,1,0,0,1,406.19,582.86Z"/><path class="cls-5" d="M472.26,440.09c.19-.42.38-.85.56-1.27C472.63,439.24,472.45,439.67,472.26,440.09Z"/><path class="cls-13" d="M398,592.93l1.41-1Z"/><path class="cls-8" d="M228,373.91l1-1Z"/><path class="cls-10" d="M237.17,367.8l.86-.93Z"/><path class="cls-8" d="M377,331.87l-16,5c-3.22-2.92-6.09-6.39-9.71-8.68-15.26-9.61-29.07-20.59-39.45-35.7a72,72,0,0,0-15.43-16.62c-12.08-9.13-27.22-9.24-41.42-12l-8-8-3-1-2,0-3-1h-6l-5,1.93-3.95-.88L204,250.25c3.39-1.61,5.36-2.43,7.21-3.47,6-3.36,10.38-8.13,12.35-14.92,1.09-3.74.06-6.82-3.12-8.61A55,55,0,0,0,209.88,219c-8.65-2.68-17.38-5.08-26.06-7.64-4.61-1.37-9.11-3.18-13.79-4.19C159.61,204.87,153.32,212,157,222c5.46,15,16.43,24.07,31.85,27.88a36.76,36.76,0,0,1,3.88,1.41L181.48,261c1.12,3.1,1.73,4.82,2.36,6.52,2.92,7.9,6.1,15.72,8.69,23.73,1.57,4.85-.61,8.36-5.5,10.66,3.13-12.55-.11-21.68-11.22-28.67-16.59-10.43-26.4-25.38-30.11-44.29a44.93,44.93,0,0,1-.09-16.79c1.84-9.54,4.87-18.85,7.39-28.26,1.61,2.87,3,5.89,4.88,8.57,3.33,4.74,7.59,8.7,13.77,8.28,5.54-.39,9-4.34,10.25-9.5a35.8,35.8,0,0,0,.55-11.23c-.5-5.91-1.67-11.76-2.44-17.64-1.43-10.92,3.79-19.13,11-26.5.34-.33.67-.66,1-1,.49-.09,1.1,0,1.45-.31,9-7.29,19.46-11.35,30.71-13.15,14.46-2.31,28.28-.15,32.57,19.58,1.52,7,3.69,14.39,7.54,20.31,11.7,18,30.42,23.61,50.41,25.43,12.36,1.13,24.87.59,37.28,1.23,8.75.45,17.45,1.61,26.61,2.5.14-1.11.29-2.35.44-3.59l1.05,2,4,3,4,2c6.1,5.59,12.39,11,18.24,16.83,9.06,9.05,18.12,18.13,26.63,27.69,9.52,10.69,17.89,22.3,23.06,35.83,6.95,18.18,9,37,8.27,56.44a279.65,279.65,0,0,1-8,57.89c-6.9,27.65-13.73,55.33-21.34,82.79-9.62,34.7-22.19,68.21-43.44,97.8a164.15,164.15,0,0,1-40,39.92c-28.08,19.37-59.89,28-93.59,29.68a186.52,186.52,0,0,1-54.3-4.89c-31.32-7.73-55.12-25.29-69.11-54.5-14.67-30.65-18.77-63.23-14.49-96.88,2.57-20.12,9.32-38.46,22.27-54.49,18-22.23,41-33,69.41-32,3.18.11,6.3,2,9.45,3-4.37,1.29-8.68,3.37-13.12,3.74-26.66,2.2-46.79,14.45-59.83,37.94-9.53,17.16-13,35.34-8,54.58,1.09,4.2,3.49,8.22,5.95,11.88,2.18,3.24,5.28,5.87,8,8.77v0c0,.32,0,.65.06,1,4,10.72,7.74,21.5,11.91,32.14,10.64,27.12,30.43,43.71,58.87,49.56,12.7,2.61,25.44,2.32,37.21-4.28,1.89-1,3.33-2.91,5-4.4l1.93-1,.59.7.57-.7.88-.9c6.08-6.16,12.19-12.29,18.21-18.5,2-2.1,3.87-4.4,5.8-6.61,1.09-.37,2.23-.64,3.27-1.11,13.31-6,23.79-15.25,32.12-27.32,8.81-12.76,18.25-25.41,20.93-40.87,2.25-13,2.62-26.38,2.51-39.59a77.2,77.2,0,0,1,12-42.91c1.38-2.18,2.14-4.75,3.18-7.14,18.49-.78,34.83-7,48.72-19.35a41.14,41.14,0,0,0,3.25-3.7c0,4.51,0,9,0,13.55-.11,16.65-2.84,33-6.8,49.05a292.65,292.65,0,0,1-31.35,77.78c-15.27,26.2-34.17,48.86-60.87,64.32-29,16.76-59.61,24.77-93,18.21-20.45-4-39-12.21-53.37-27.91-5.58-6.1-10.61-12.72-15.69-19.26-4-5.22-6.81-6.49-12.34-4.73-.53,1.57-1.11,3.27-1.59,4.67a79.39,79.39,0,0,0,29,45.61c29.26,23.16,62.66,28.12,98.32,21,23.31-4.65,44.81-14.13,65.39-26,22-12.68,40.27-29.14,54.49-50,12.25-18,21.14-37.73,27.6-58.39q10.17-32.49,18.22-65.62c5.66-23.18,9.53-46.75,9-70.75-.31-13.58-1.28-27.15-1.89-40.73-.13-2.8,0-5.61,0-8.61a29,29,0,0,1-2-5.12c-3.7-18-9.38-35.32-19.94-50.61-3.22-4.67-6.59-9.64-13.1-10.41-7.09-7.09-13-15-23.69-18.26-10.27-3.15-20.79-6-33.11-4.06,2.47.39,4.06,1,5.59.85,18.84-1.61,33.66,6.24,46.21,19.48-1.2.44-2.38,1-3.62,1.32-9,2.45-13.79,9.28-11.24,18.26,2.47,8.69,6.6,16.91,9.82,25.4,2.5,6.62,4.71,13.34,7.05,20a29.17,29.17,0,0,0-4.79,1.06c-3.47,1.39-8.4,2.09-10,4.73-4.78,8-8.25,16.75-12.24,25.21ZM148,543.35c.81-2.5,2.11-4.5,1.91-6.34a46,46,0,0,0-2.67-12.42c-2.67-6.57-7.44-12.52-8.92-19.27-2-8.93-1.54-18.38-2.32-27.59-.31-3.59-1.09-7.15-1.73-11.19C118.93,476.74,122.44,525.36,148,543.35Z"/><path class="cls-7" d="M221,399c-3.15-1-6.27-2.88-9.45-3-28.45-1-51.45,9.75-69.41,32-13,16-19.7,34.37-22.27,54.49-4.28,33.65-.18,66.23,14.49,96.88,14,29.21,37.79,46.77,69.11,54.5a186.52,186.52,0,0,0,54.3,4.89c33.7-1.7,65.51-10.31,93.59-29.68a164.15,164.15,0,0,0,40-39.92c21.25-29.59,33.82-63.1,43.44-97.8,7.61-27.46,14.44-55.14,21.34-82.79a279.65,279.65,0,0,0,8-57.89c.69-19.45-1.32-38.26-8.27-56.44-5.17-13.53-13.54-25.14-23.06-35.83-8.51-9.56-17.57-18.64-26.63-27.69-5.85-5.84-12.14-11.24-18.24-16.83,9,3.22,18.5,5.54,27,9.84,20.77,10.51,35.65,27.5,47.48,47.12,9.58,15.88,16.13,33.08,18.51,51.58,2.46,19.24,1.07,38.33-2.71,57.36A1018.52,1018.52,0,0,1,446,483.36c-9.65,29-22.19,56.55-39.56,81.82-16.33,23.77-35.58,44.66-60.18,60.07-16.76,10.5-35.12,17-54.58,20.66a193.92,193.92,0,0,1-47.1,2.85c-23.14-1.39-45.54-6.08-66.54-16.71-12.54-6.35-24.47-13.56-34.45-23.31-17.6-17.19-27.92-38.65-32.34-62.63-2.45-13.28-4.25-27-3.89-40.41.48-18.4,4.17-36.54,12-53.48.76-1.63,2.38-2.86,3.6-4.28l1-2.07,0,.05,1-2,0,0,1-2,0,0,1-2,0,0,1-3,0,0,1-1,0,0,1.28-2A12.24,12.24,0,0,0,135,422.73c7.61-10.76,17.56-18.93,28.76-25.63,1.47-.88,3.46-.88,5.21-1.29L156.88,406.6l.86,1,24.71-14L177,392.09l19.24-4.72c-.72.75-1.43,1.51-1.27,1.33,7,1.47,14.6,3.1,22.23,4.58.53.1,1.28-1,1.93-1.5C223.46,394.28,224,396.11,221,399ZM114.32,546.8c-.49,6.88,6.31,25.79,10.26,28.93Zm3.32-83.32-.43.57.32.22Zm-4.09,80.07-.31.19.37.56C113.58,544,113.57,543.77,113.55,543.55Z"/><path class="cls-14" d="M218.77,428.52c-3.66.91-7.28,2.09-11,2.63a16.29,16.29,0,0,1-7.18-.55c-3.8-1.24-6.57,0-9.71,2a25.49,25.49,0,0,1-9.68,3.88c-3.88.57-6.54,2-8.2,5.48-.92,1.91-1.89,3.8-3,6.09l-8.4-3.25c-5.56,2.51-7.13,7.61-8.48,12.46-4.26,15.23-5.2,30.65-1.52,46.19a30.91,30.91,0,0,1,.42,4.43c-7.7-3.85-9.56-11.39-10.72-18.69-5.17-32.55,13.85-66.75,44.14-78.38,8.69-3.33,18.43-3.86,27.66-5.87,3.37-.73,6.62-2,9.93-3.05l1.82-.08-1,4.05-2,6.95c-.19.33-.37.67-.56,1-.42,2.35-.85,4.71-1.27,7.07C219.58,423.43,219.18,426,218.77,428.52Z"/><path class="cls-15" d="M177,392.09l5.43,1.46-24.71,14-.86-1,12.06-10.79Z"/><path class="cls-13" d="M239,657.9c2.95.33,5.92,1.05,8.86.94,11.84-.45,23.68-1.16,35.52-1.75.26,0,.55.24.87.39l-5.32,3.3L277,661l-3.15.68-3.57-.42-8.42,1.43-6.8.08c-3.59-.94-7.2-1.81-10.76-2.84-1.81-.53-3.54-1.33-5.31-2Z"/><path class="cls-6" d="M219.15,391.78c-.65.53-1.4,1.6-1.93,1.5-7.63-1.48-15.24-3.11-22.23-4.58-.16.18.55-.58,1.27-1.33l4.62-.19,5.22.47,8.91,2,4.09,2.14Z"/><path class="cls-13" d="M361,625.37l8-5.44Z"/><path class="cls-5" d="M261.88,662.65l8.42-1.43Z"/><path class="cls-13" d="M377,613.94c.8-3.41,2.81-5.28,6.47-5l-.5,1Z"/><path class="cls-13" d="M371,617.94l6-4Z"/><path class="cls-7" d="M219.1,391.76,215,389.62Z"/><path class="cls-5" d="M273.87,661.64,277,661Z"/><path class="cls-7" d="M206.1,387.65l-5.22-.47Z"/><path class="cls-13" d="M369,620l2-2Z"/><path class="cls-6" d="M224.82,401.81l-1.82.08c.68-.67,1.36-1.34,2-2Z"/><path class="cls-16" d="M247,440.9c2.39.33,4.77.79,7.17,1,7,.53,11,5,10.54,13.33-2.56,1.67-5.45,4.34-8.87,5.61-8.34,3.11-14.87,8.58-20.93,14.76-1.48,1.5-2.43,3.51-4.42,4.8C226.34,471,224,462.24,225,452.9,230.42,445.38,238.53,442.81,247,440.9Z"/><path class="cls-16" d="M237,388.9c3.22-1.95,6.4-4,9.67-5.84s6.44-1.85,9.17.86,4.1,5.64,2.45,9.43c-.66,1.52-1.08,3.16-1.87,4.61-4.56,8.42-9.2,16.8-14,25.59-4.16,1.11-7.62-.15-9.91-4.54-.47-.9-1.62-1.44-2.46-2.14C229.62,406.86,232.65,397.71,237,388.9Z"/><path class="cls-17" d="M220,420.89c.42-2.36.85-4.72,1.27-7.07a2.57,2.57,0,0,1,.62,0l.15,3.29Z"/><path class="cls-3" d="M221.82,412.81l2-6.95,1.42.16c-.05.31-.1.58-.15.85,0,1,0,2-.07,3l-.79,1L222.76,413A4.29,4.29,0,0,1,221.82,412.81Z"/><path class="cls-4" d="M228.79,393.87l2.24-2q-.89,2.92-1.75,5.85l-1-.27Z"/><path class="cls-18" d="M229.92,428.9c.36,1,.71,2,1.07,3l-1.85-3.07Z"/><path class="cls-19" d="M225,409.9c0-1,.05-2,.07-3C225.05,407.88,225,408.89,225,409.9Z"/><path class="cls-19" d="M222,417.1l-.15-3.29Z"/><path class="cls-11" d="M229.92,428.9l-.78,0c.29-1,.59-2.06.88-3.09C230,426.81,230,427.85,229.92,428.9Z"/><path class="cls-19" d="M222.76,413l1.45-2.09Z"/><path class="cls-19" d="M234,434.9l1.4.24-.42.9Z"/><path class="cls-4" d="M227.66,399.23l0,1.07-.32,0,.06-1.06Z"/><path class="cls-18" d="M233,433.88l1.05,1.05Z"/><path class="cls-18" d="M232,432.88l1,1Z"/><path class="cls-18" d="M231,431.89l1,1Z"/><path class="cls-13" d="M385,607.4l4-4.47c-.11.57-.21,1.15-.32,1.72l-1,1-1,1Z"/><path class="cls-13" d="M391,600.93l1-1Z"/><path class="cls-13" d="M390,601.93l1-1Z"/><path class="cls-13" d="M389,602.93l1-1Z"/><path class="cls-13" d="M392,599.93l1.43-1Z"/><path class="cls-19" d="M379,186.88c-.15,1.24-.3,2.48-.44,3.59-9.16-.89-17.86-2.05-26.61-2.5-12.41-.64-24.92-.1-37.28-1.23-20-1.82-38.71-7.45-50.41-25.43-3.85-5.92-6-13.29-7.54-20.31-4.29-19.73-18.11-21.89-32.57-19.58-11.25,1.8-21.72,5.86-30.71,13.15-.35.28-1,.22-1.45.31,3.66-3.45,6.95-7.41,11-10.25,19.06-13.31,39.41-23.86,62.51-28.48,17.34-3.47,33-.23,45.36,12.51a157.67,157.67,0,0,1,21,27.62c10.25,16.84,22.61,31.45,38.62,43C373.61,181.47,376.19,184.33,379,186.88Z"/><path class="cls-7" d="M153,183.9c-2.52,9.41-5.55,18.72-7.39,28.26A44.93,44.93,0,0,0,145.7,229c3.71,18.91,13.52,33.86,30.11,44.29,11.11,7,14.35,16.12,11.22,28.67l-6.06,9L171,318.94c1.37-11.05-3.08-19.59-11.18-26.76s-16.44-14.42-24-22.25c-3.13-3.24-4.56-8.13-6.76-12.26l8.61,10.4,1.38-1c-.44-1.18-.79-2.41-1.32-3.55-2.94-6.29-5.88-12.59-8.94-18.83a30.78,30.78,0,0,0-2.78-4c0-2.28-.07-4.57-.1-6.85.4-3.28.79-6.57,1.19-9.85.94-1.41,2.18-2.7,2.76-4.25,6.5-17.31,12.86-34.67,19.35-52,.5-1.35,1.59-2.48,2.75-4.22.38,6.15.7,11.29,1,16.44Z"/><path class="cls-19" d="M153,183.9v-4c2.74-4.17,5.65-8.24,8.2-12.52,6.93-11.66,16.61-20.92,26.2-30.26.82-.8,2.38-.84,3.59-1.24-7.19,7.37-12.41,15.58-11,26.5.77,5.88,1.94,11.73,2.44,17.64a35.8,35.8,0,0,1-.55,11.23c-1.24,5.16-4.71,9.11-10.25,9.5-6.18.42-10.44-3.54-13.77-8.28C156,189.79,154.61,186.77,153,183.9Z"/><path class="cls-20" d="M127.12,223.92c-.4,3.28-.79,6.57-1.19,9.85-1-1.41-2.71-2.77-2.79-4.22-1.17-20.2,3.9-38.92,13.7-56.5a51.43,51.43,0,0,0,2.41-5.93l2-3c6.09-6.73,11.93-13.73,18.36-20.11,4.28-4.23,9.42-7.59,14.17-11.34l1.37,1.42c-1.93,2-3.74,4.07-5.82,5.86a123.76,123.76,0,0,0-42.19,84Z"/><path class="cls-20" d="M209.88,107.07c.64-1.21,1-2.84,2-3.57a83.47,83.47,0,0,1,31.38-14.45,4.77,4.77,0,0,1,1.94.16c.25.06.42.45,1.25,1.4l-35.58,17.07Z"/><path class="cls-19" d="M384,191.87l-4-3Z"/><path class="cls-19" d="M379.34,184.41l-.17-1.48c.25.16.63.28.71.5S379.63,183.91,379.34,184.41Z"/><path class="cls-13" d="M239,657.88l-2.21-.15L237,657l2,.86Z"/><path class="cls-13" d="M128,436.88l-1,3Z"/><path class="cls-13" d="M130.28,433.88l-1.28,2Z"/><path class="cls-13" d="M127,439.88l-1,2Z"/><path class="cls-13" d="M126,441.88l-1,2Z"/><path class="cls-13" d="M125,443.88l-1,2Z"/><path class="cls-13" d="M124,445.87l-1,2.07Z"/><path class="cls-13" d="M129,435.89l-1,1Z"/><path class="cls-17" d="M411,236.88c6.51.77,9.88,5.74,13.1,10.41,10.56,15.29,16.24,32.57,19.94,50.61a29,29,0,0,0,2,5.12c0,3-.11,5.81,0,8.61.61,13.58,1.58,27.15,1.89,40.73.55,24-3.32,47.57-9,70.75q-8.07,33.08-18.22,65.62c-6.46,20.66-15.35,40.4-27.6,58.39-14.22,20.9-32.53,37.36-54.49,50-20.58,11.89-42.08,21.37-65.39,26-35.66,7.11-69.06,2.15-98.32-21a79.39,79.39,0,0,1-29-45.61c.48-1.4,1.06-3.1,1.59-4.67,5.53-1.76,8.29-.49,12.34,4.73,5.08,6.54,10.11,13.16,15.69,19.26,14.37,15.7,32.92,23.9,53.37,27.91,33.4,6.56,64-1.45,93-18.21,26.7-15.46,45.6-38.12,60.87-64.32a292.65,292.65,0,0,0,31.35-77.78c4-16.08,6.69-32.4,6.8-49.05,0-4.52,0-9,0-13.55,9-10.61,13.5-22.76,11.88-36.69-.45-3.86-2.53-7.53-3.86-11.28,1.41-7.69-.91-14.64-4.64-21.11-3.63-6.29-8.45-11.32-16.36-11.92-2.34-6.67-4.55-13.39-7.05-20-3.22-8.49-7.35-16.71-9.82-25.4-2.55-9,2.27-15.81,11.24-18.26,1.24-.34,2.42-.88,3.62-1.32,4.81,5.42,8.88,11.11,7,19l-1,2c-.25.35-.5.71,0,0-.2.9-.1.46,0,0l1-2,1.71,2.1c.34-3.14.65-6.05,1-8.86C414.11,243.71,412.56,240.29,411,236.88Zm-2,25-1.89,1.24c-.12-2.35-.21-4.27-.3-6.18-.14,10.42-2.35,21,1.33,31.11-.15-4.85-1.05-9.69-1-14.52,0-3.89,1.2-7.77,1.87-11.65.25-.36.5-.71,0,0C409.19,261,409.09,261.45,409,261.89Zm23.29,61.45a40,40,0,0,1-1-24.67l4.13.94c-1.52-2.11-2.45-3.43-3.61-5.05.37-2.42.83-5,1.16-7.61a56.31,56.31,0,0,0,.73-7.86,37.05,37.05,0,0,0-.81-5.86c-1.72,10.69-3.86,22.19-5.32,33.78C426.84,312.86,428,318.66,432.29,323.34ZM411,292l-.94,1.12c3.8,3.86,6.83,8.74,14.4,10Zm26,8c-.32.33-.63.66-.95,1l3.3,3.58,2.19-2.44Z"/><path class="cls-17" d="M369,403.93c-1,2.39-1.8,5-3.18,7.14a77.2,77.2,0,0,0-12,42.91c.11,13.21-.26,26.63-2.51,39.59-2.68,15.46-12.12,28.11-20.93,40.87-8.33,12.07-18.81,21.28-32.12,27.32-1,.47-2.18.74-3.27,1.11,4-8.71,8.64-17.21,11.95-26.19,5-13.54,8.84-27.35,6.19-42.22-1.82-10.18-6.43-18.59-17-27.54l6.15-7.7c-.92-6.84-2.59-12.12-2.1-17.18,1-10.8-3.29-17.31-13.13-21.24-6-2.41-8.64-6.78-8-11.37.8-5.51,4.34-9.26,8.6-12.32,3.62-2.6,7.53-4.82,11.61-7.39C321.13,401.08,344.71,404.34,369,403.93Z"/><path class="cls-21" d="M268.93,588.88l-1.93,1-7,2c-.33.35-.67.69-1,1l.05,0-2.06,1,.07,0c-5.39.66-10.8,2-16.14,1.8-8.34-.36-16.64-1.81-24.95-2.79l0,0-2.36-1-.44.07L211,590.9l0,0-2-.07c-6.84-2.62-13.47-5.55-18.06-11.66l-1-1.3v0l-2-1h0l-1-1h0l-1.29-1-.71-.76-2-2.25c-7.77-7.17-12.06-16.47-15.86-26-6.49-16.33-12.4-32.92-14.54-50.41-1-8.37.23-17,.45-25.54,2.54,1.35,5.06,2.74,7.64,4,7.54,3.77,14.76,1.69,21.33-2.14,12.85-7.51,26-9.33,40-3.88l2.84,4.82q1.59,5.36,3.17,10.71l1,1.47,0,0c.35.68.69,1.36,1,2l0,0,2.31,3,3.68,4c-.35,1.57-.7,3.14-1.06,4.71l-1,.22c-6.16,2.19-11.64.4-17.13-2.52-7.14-3.8-14.21-3.07-20.5,1.9-7,5.54-9.1,13-6.41,21.43,5.33,16.63,16.75,28.22,32.17,35.52,10.33,4.91,21.44,5.24,32.52,1.43a60.14,60.14,0,0,0,25.66-17.49c17.24-19.47,25.2-41.34,16.81-67.26,6.08,2.5,8.47,8.19,10.86,13.49,5,11.13,4.22,22.75,1.69,34.37-4.09,18.77-12.51,35.5-24,50.75-1.1,1.46-3,2.29-4.59,3.42-.13-.45-.26-.89-.54-1.82l-.44,1.86,0,0-1,1h0l-2,4,0,0L276,580c-.9,1.24-1.85,2.44-2.66,3.73s-1.58,2.82-2.36,4.24l-.89.9Zm9.49-28.78c-3.36,1.32-6.28,1.81-8.37,3.39q-21.28,16.15-47,9.27a55.82,55.82,0,0,1-30.93-21.43c-7.29-9.86-12.09-20.93-12.22-33.63-.07-7.19,2-13.72,5.15-20,1.49-3,2.7-6.47,0-8.74a15.67,15.67,0,0,0-9.22-3.79c-4.79,0-8.72,2.79-11.17,7.26a19,19,0,0,0-.73,17.25c5.86,12.81,12.45,25.31,19.11,37.74a69.91,69.91,0,0,0,18.08,21.64,72.7,72.7,0,0,0,36.69,15.34c11.68,1.57,22.69.11,32.09-7.27C274.62,573.46,279.84,569.44,278.42,560.1ZM220,481.65c-2.41-6-6.22-9.06-11-8.72-4.21.29-11.77,4.4-13.55,11.32C201.87,487.72,216.26,486.31,220,481.65Z"/><path class="cls-17" d="M181,310.87l6.06-9c4.89-2.3,7.07-5.81,5.5-10.66-2.59-8-5.77-15.83-8.69-23.73-.63-1.7-1.24-3.42-2.36-6.52l11.22-9.67a36.76,36.76,0,0,0-3.88-1.41C173.4,246.11,162.43,237.08,157,222c-3.65-10,2.64-17.17,13.06-14.91,4.68,1,9.18,2.82,13.79,4.19,8.68,2.56,17.41,5,26.06,7.64a55,55,0,0,1,10.54,4.29c3.18,1.79,4.21,4.87,3.12,8.61-2,6.79-6.31,11.56-12.35,14.92-1.85,1-3.82,1.86-7.21,3.47l20.07,4.68c-1.7,2.18-3.43,4.34-5.09,6.56-10,13.34-6.08,30.29,9.15,36.13,5.12,2,11.43.85,17.2,1.14,3.85-1.45,8.88-.76,10.69-5.9l0,0,.64-.56-.77-.48,4.14-8c.53-.13,1.49-.21,1.51-.38.42-4.32,1.94-8.8-1.58-12.62l-2.93-2-1-2c-.33-1-.65-2-1-3,14.2,2.72,29.34,2.83,41.42,12a72,72,0,0,1,15.43,16.62c10.38,15.11,24.19,26.09,39.45,35.7,3.62,2.29,6.49,5.76,9.71,8.68-11.82.87-23.33-1.7-34-5.81-13.69-5.27-26.61-12.55-39.87-19l.41-1.15c-.69-2.17-1.38-4.35-2.21-7l-3.12,2.43,0-1.29c-5.92-.06-12.14-1.26-17.69.14s-10.55,5.43-15.78,8.3l.33,1.78c-2.09-.73-4.93-.83-6.16-2.29-8.16-9.7-18.3-9.15-29-6.26-5.59,1.51-11.12,3.34-16.79,4.42-2.22.43-4.75-.81-7.14-1.3.21-1.18.41-2.36.71-4.07L183.06,311Z"/><path class="cls-7" d="M297,471.86c8.39,25.92.43,47.79-16.81,67.26a60.14,60.14,0,0,1-25.66,17.49c-11.08,3.81-22.19,3.48-32.52-1.43-15.42-7.3-26.84-18.89-32.17-35.52-2.69-8.41-.61-15.89,6.41-21.43,6.29-5,13.36-5.7,20.5-1.9,5.49,2.92,11,4.71,17.13,2.52,2.62,4.95,11.26,5.92,15.82,1.66a18.54,18.54,0,0,0,2.41-3.6c-5.87,2.83-11.24,4.48-17.19,1.72.36-1.57.71-3.14,1.06-4.71,7.08,2.3,11.2,1,15.64-5.52,3-4.33,5.53-8.91,8.28-13.39l1.07-1.16,0,0c.34-.34.68-.69,1-1h0a28.83,28.83,0,0,0,3.61-1.05c3.76-1.61,7.48-3.31,11.16-4.95l-.74-1C284.21,463.62,290.8,467.09,297,471.86ZM202.43,528c-1.21-2.44-2.43-4.87-4-8.09C195.46,524.9,196.59,527.27,202.43,528Zm54.17-39.43,2.14.27,3.37-7.12-1.18-1.17c-1.27.85-3.1,1.44-3.67,2.63C256.52,484.68,256.77,486.71,256.6,488.53Zm-2.66,4.54,1.41.77c.55-1,1.1-2,1.66-3.06l-1.42-.77Z"/><path class="cls-7" d="M377,331.87l4-1c1.33,0,2.67-.05,4,0,6.49.36,13.11,5.78,15.29,12.49A17.65,17.65,0,0,1,395,362.3c-15,12-32.39,17.1-51.22,17.5a94.94,94.94,0,0,1-49.49-12.86c-12.08-6.86-23.44-14.53-27-29.42-1.18-4.94-2.46-9.57.78-14.29,4.91-7.14,11.3-10.35,20-8.37,4.87,3.4,9.8,6.72,14.59,10.23,12.58,9.21,26.13,16.33,41.56,19.31,8.18,1.58,16.39,1.79,24.22-1.81A14.22,14.22,0,0,0,377,331.87Zm-10,15-23,2.69.12,1.19L367,347.85l5.53-1.86-.48-1.26ZM313.82,342l.83-1.33L289,326.7l-1,1.73C295.29,335.44,304.6,338.66,313.82,342Zm60.76,2.23.57.42.21-.31Z"/><path class="cls-22" d="M288,314.86c-8.66-2-15,1.23-20,8.37-3.24,4.72-2,9.35-.78,14.29,3.55,14.89,14.91,22.56,27,29.42a94.94,94.94,0,0,0,49.49,12.86c18.83-.4,36.26-5.47,51.22-17.5a17.65,17.65,0,0,0,5.3-18.91c-2.18-6.71-8.8-12.13-15.29-12.49-1.33-.07-2.67,0-4,0,4-8.46,7.46-17.23,12.24-25.21,1.58-2.64,6.51-3.34,10-4.73a29.17,29.17,0,0,1,4.79-1.06c7.91.6,12.73,5.63,16.36,11.92,3.73,6.47,6.05,13.42,4.64,21.11q-2,11-4,22l-2,4.95-9,14c-.33.34-.65.68-1,1h0l-2,2h0l-1,1h0l-1,1,0,0-1,1,0,0-1,1,0,0-1,1,0,0-1,1,0,0-1,1,.05,0-2.06,1,0,0c-.34.35-.69.69-1,1l.05,0-2,1,0,0h-1l-1,1,.05,0c-13.86,5.36-28.58,5.36-43,7l-3.05,0c-2.62-2.82-8.22-2.85-10.84-.06-13.5-1.48-27.07-3.14-39.52-8.78-14.77-6.71-25.5-18.69-36.65-30.06-6.14-6.26-9-13.39-7.93-22.06a38.45,38.45,0,0,1,1-5.33c1.23-4.58,2.59-9.12,4-14.13l4,2.67-.48,1.54.87.51L267,317l1.65-1.12,4.41-8C280.16,305.66,283.61,311.3,288,314.86ZM299,374l-1.4,3c2.46,1.45,4.75,3.53,7.41,4.24,16,4.24,32.08,7,48.86,5.79s32.44-6.2,47.31-13.83c3.64-1.87,6.82-4.53,7.75-10.16-2.23.43-4,.38-5.34,1.1-3.51,1.85-6.84,4.05-10.25,6.1-25.24,15.16-51.68,18.32-79.54,8.1C309,376.61,303.93,375.46,299,374Z"/><path class="cls-7" d="M222,467.9c-14-5.45-27.14-3.63-40,3.88-6.57,3.83-13.79,5.91-21.33,2.14-2.58-1.29-5.1-2.68-7.64-4,.16-7.95,2.69-15.1,7.37-22.18l11.45,2.45a66.42,66.42,0,0,1,3.34-7.21c1.5-2.42,3-5.61,6.82-3.1l-2.87,3.06,1,1.19,6.85-4.43,3-1.83.65,2,.36-2,0,0,2-2h0l8-2,7.2.28c-.29,1-.58,2-.85,3l10.23-2-.09-1.53h-6.63L215,430.8c7.13,2,7.33,6.92,7,12.15,0,2.25-.05,4.51-.08,6.76.05,3.69.09,7.37.14,11.06Z"/><path class="cls-2" d="M283.74,462.5l-3.36.21c-1.67-12.12-9.68-18.94-20.87-23.42C269,434.52,284.1,449.68,283.74,462.5Z"/><path class="cls-2" d="M243.75,358.78l7.39-13.91,2.82-.37c1.28,4-3.06,14-7.88,18.21Z"/><path class="cls-11" d="M354,394.89c14.46-1.64,29.18-1.64,43-7-5.58,2.2-11,5.36-16.79,6.35-8.05,1.38-16.38,1.14-24.6,1.53C355.12,395.79,354.55,395.2,354,394.89Z"/><path class="cls-12" d="M216,592.9c8.31,1,16.61,2.43,24.95,2.79,5.34.24,10.75-1.14,16.14-1.8-13.37,6.22-26.78,4.22-40.18.13C216.49,593.9,216.26,593.28,216,592.9Z"/><path class="cls-2" d="M183.06,311l7.62-5.16c-.3,1.71-.5,2.89-.71,4.07h0l-1,0c-3.2,4.43-5.62,9.64-10.86,12l-1.41-1.08Q179.89,315.91,183.06,311Z"/><path class="cls-10" d="M276,465.9l.74,1c-3.68,1.64-7.4,3.34-11.16,4.95a28.83,28.83,0,0,1-3.61,1.05A17,17,0,0,1,276,465.9Z"/><path class="cls-5" d="M170,361.91c-4.13-4.59-6.59-9.78-5.84-16.14a47.55,47.55,0,0,1,2.06,4.49C167.52,354.12,168.72,358,170,361.91Z"/><path class="cls-13" d="M210.86,433.69h6.63l.09,1.53-10.23,2c.27-1,.56-2,.85-3Z"/><path class="cls-4" d="M340.11,394.79c2.62-2.79,8.22-2.76,10.84.06Z"/><path class="cls-10" d="M187,439.67l-6.85,4.43-1-1.19,2.87-3.06Z"/><path class="cls-4" d="M222,467.9l0-7.13,2.82,12Z"/><path class="cls-13" d="M273.05,307.86l-4.41,8C268.67,312.38,269.12,309.16,273.05,307.86Z"/><path class="cls-10" d="M201,433.88l-8,2,2.83-2.27,2.4,0Z"/><path class="cls-2" d="M187.78,317.67q-.5,3-1,6l-.26,0v-6.18Z"/><path class="cls-4" d="M423,359.87l2-4.95Z"/><path class="cls-20" d="M221.88,449.71c0-2.25.05-4.51.08-6.76C221.93,445.2,221.91,447.46,221.88,449.71Z"/><path class="cls-12" d="M277,578.92l2-4Z"/><path class="cls-11" d="M267,317l-1.59,2.2-.87-.51.48-1.54Z"/><path class="cls-8" d="M183,372.89l-2.92-2.05Z"/><path class="cls-12" d="M232.32,489.9l-2.31-3Z"/><path class="cls-7" d="M198.2,433.56l-2.4,0c.32-.49.65-1,1.19-1.8C197.55,432.61,197.87,433.09,198.2,433.56Z"/><path class="cls-5" d="M411,376.9l2-2Z"/><path class="cls-10" d="M193,435.85l-2,2Z"/><path class="cls-18" d="M183,571.89l2,2.25Z"/><path class="cls-10" d="M191,437.84l-.36,2-.65-2Z"/><path class="cls-11" d="M402,384.93l2.06-1Z"/><path class="cls-12" d="M230,486.89c-.34-.68-.68-1.36-1-2C229.35,485.53,229.69,486.21,230,486.89Z"/><path class="cls-12" d="M399,386.92l2-1Z"/><path class="cls-12" d="M280,573.93l.44-1.86c.28.93.41,1.37.54,1.82C280.67,573.91,280.34,573.93,280,573.93Z"/><path class="cls-18" d="M188,576.91l2,1Z"/><path class="cls-18" d="M211,590.9l2.25,1.06Z"/><path class="cls-18" d="M209.05,590.86l2,.07Z"/><path class="cls-12" d="M213.65,591.89l2.36,1Z"/><path class="cls-12" d="M257,593.93l2.06-1Z"/><path class="cls-10" d="M261,473.85,259.92,475C260.28,474.62,260.64,474.24,261,473.85Z"/><path class="cls-12" d="M401,385.93c.35-.35.7-.69,1-1C401.69,385.24,401.34,385.58,401,385.93Z"/><path class="cls-12" d="M408,379.92l1-1Z"/><path class="cls-12" d="M409,378.92l1-1Z"/><path class="cls-12" d="M410,377.91l1-1Z"/><path class="cls-12" d="M398,386.89h1l-1,.93C398,387.52,398,387.21,398,386.89Z"/><path class="cls-11" d="M404,383.93l1-1Z"/><path class="cls-12" d="M279,574.91l1-1Z"/><path class="cls-18" d="M185.7,574.9l1.29,1Z"/><path class="cls-18" d="M187,575.9l1,1Z"/><path class="cls-12" d="M229,484.9l-1-1.47Z"/><path class="cls-18" d="M190,577.9l1,1.3Z"/><path class="cls-10" d="M262,472.85c-.35.34-.69.69-1,1C261.3,473.54,261.64,473.19,262,472.85Z"/><path class="cls-12" d="M407,380.92l1-1Z"/><path class="cls-11" d="M398,386.89c0,.32,0,.63,0,.94l-1,.1Z"/><path class="cls-12" d="M259,592.92c.34-.34.68-.68,1-1Z"/><path class="cls-12" d="M405,382.92l1-1Z"/><path class="cls-5" d="M413,374.91l1-1Z"/><path class="cls-1" d="M154,516.87c0-.32-.05-.65-.06-1a5.53,5.53,0,0,1,.42.69S154.15,516.78,154,516.87Z"/><path class="cls-12" d="M276,580l1-1.12Z"/><path class="cls-17" d="M189,309.88l1,0-.5.57Z"/><path class="cls-12" d="M406,381.92l1-1Z"/><path class="cls-15" d="M126,240.62a30.78,30.78,0,0,1,2.78,4c3.06,6.24,6,12.54,8.94,18.83.53,1.14.88,2.37,1.32,3.55l-1.38,1-8.61-10.4c-1.22-4.34-2.57-8.65-3.6-13C125.2,243.41,125.83,242,126,240.62Z"/><path class="cls-3" d="M148,543.35c-25.51-18-29-66.61-13.73-76.81.64,4,1.42,7.6,1.73,11.19.78,9.21.35,18.66,2.32,27.59,1.48,6.75,6.25,12.7,8.92,19.27A46,46,0,0,1,149.86,537C150.06,538.85,148.76,540.85,148,543.35Z"/><path class="cls-23" d="M260,283.88l-4.14,8c0,.35.09.7.13,1l0,0c-3.2,1.19-6.45,2.29-9.59,3.64-.58.25-.74,1.48-1.1,2.26-5.77-.29-12.08.83-17.2-1.14-15.23-5.84-19.15-22.79-9.15-36.13,1.66-2.22,3.39-4.38,5.09-6.56l3.95.88V256c-.59.94-1,2.17-1.79,2.76-11.3,8-13.2,18.33-5.51,29.7,5.13,7.6,12.79,8.7,20.66,7.23,7.16-1.34,12.67-6,14.46-13.41,1-4.29.81-8.88,1.14-13.33l2.94,2c.06,2,.11,4,.17,6v5Z"/><path class="cls-16" d="M411,236.88c1.56,3.41,3.11,6.83,4.68,10.26-.31,2.81-.62,5.72-1,8.86L413,253.9h0c1.89-7.89-2.18-13.58-7-19-12.55-13.24-27.37-21.09-46.21-19.48-1.53.13-3.12-.46-5.59-.85,12.32-1.95,22.84.91,33.11,4.06C398,221.89,403.91,229.79,411,236.88Z"/><path class="cls-23" d="M255,263.89c.33,1,.65,2,1,3l-7-5c-.65-.35-1.31-.69-2-1-1-4.12-4.51-3.58-7.45-4-3.17-.43-6.36-.67-9.55-1l3-2h6l3,1,2,0,3,1Z"/><path class="cls-17" d="M233,253.88l-3,2-2,0v-.14Z"/><path class="cls-17" d="M242,254.84l-3-1Z"/><path class="cls-17" d="M247,255.9l-3-1Z"/><path class="cls-3" d="M268.93,588.88h1.15c-.16.21-.33.42-.56.7Z"/><path class="cls-10" d="M114.32,546.8l10.26,28.93C120.63,572.59,113.83,553.68,114.32,546.8Z"/><path class="cls-4" d="M117.64,463.48l-.11.79-.32-.22Z"/><path class="cls-10" d="M113.55,543.55c0,.22,0,.44.06.75l-.37-.56Z"/><path class="cls-3" d="M432.29,323.34c-4.25-4.68-5.45-10.48-4.71-16.33,1.46-11.59,3.6-23.09,5.32-33.78a37.05,37.05,0,0,1,.81,5.86A56.31,56.31,0,0,1,433,287c-.33,2.6-.79,5.19-1.16,7.61,1.16,1.62,2.09,2.94,3.61,5.05l-4.13-.94A40,40,0,0,0,432.29,323.34Z"/><path class="cls-3" d="M409,261.89c-.67,3.88-1.84,7.76-1.87,11.65,0,4.83.86,9.67,1,14.52-3.68-10.15-1.47-20.69-1.33-31.11.09,1.91.18,3.83.3,6.18l1.89-1.24Z"/><path class="cls-3" d="M411,292l13.46,11.13c-7.57-1.27-10.6-6.15-14.4-10Z"/><path class="cls-3" d="M437,300l4.54,2.12-2.19,2.44L436,301C436.32,300.69,436.63,300.36,437,300Z"/><path class="cls-16" d="M413,253.9l-1,2h0l1-2Z"/><path class="cls-16" d="M412,255.89c-.09.44-.19.88,0,0-.51.73-.26.37,0,0Z"/><path class="cls-3" d="M409,261.89c.09-.44.19-.88,0,0,.49-.7.24-.35,0,0Z"/><path class="cls-24" d="M278.42,560.1c1.42,9.34-3.8,13.36-8.45,17-9.4,7.38-20.41,8.84-32.09,7.27a72.7,72.7,0,0,1-36.69-15.34,69.91,69.91,0,0,1-18.08-21.64C176.45,535,169.86,522.48,164,509.67a19,19,0,0,1,.73-17.25c2.45-4.47,6.38-7.27,11.17-7.26a15.67,15.67,0,0,1,9.22,3.79c2.68,2.27,1.47,5.78,0,8.74-3.19,6.29-5.22,12.82-5.15,20,.13,12.7,4.93,23.77,12.22,33.63a55.82,55.82,0,0,0,30.93,21.43q25.68,6.84,47-9.27C272.14,561.91,275.06,561.42,278.42,560.1Z"/><path class="cls-3" d="M220,481.65c-3.73,4.66-18.12,6.07-24.51,2.6,1.78-6.92,9.34-11,13.55-11.32C213.77,472.59,217.58,475.6,220,481.65Z"/><path class="cls-15" d="M234.94,498.63c5.95,2.76,11.32,1.11,17.19-1.72a18.54,18.54,0,0,1-2.41,3.6c-4.56,4.26-13.2,3.29-15.82-1.66Z"/><path class="cls-25" d="M228,256l2,0c3.19.32,6.38.56,9.55,1,2.94.4,6.47-.14,7.45,4-4.67-.67-9.33-1.78-14-1.89-5.72-.12-11.26,5.08-11.9,10.3l-.47,2.19c-.53,1.13-1.42,2.22-1.54,3.39A16.82,16.82,0,0,0,231,293.24c11.45,3.71,23.45-5,23.3-15.83-.09-6.12-2.55-10.67-5.29-15.49l7,5,1,2c-.34,4.45-.12,9-1.15,13.33-1.79,7.44-7.3,12.07-14.46,13.41-7.87,1.47-15.53.37-20.66-7.23-7.69-11.37-5.79-21.73,5.51-29.7C227.05,258.12,227.42,256.89,228,256Z"/><path class="cls-13" d="M245.31,298.76c.36-.78.52-2,1.1-2.26,3.14-1.35,6.39-2.45,9.59-3.64C254.19,298,249.16,297.31,245.31,298.76Z"/><path class="cls-18" d="M260.08,276.87c-.06-2-.11-4-.17-6,3.52,3.82,2,8.3,1.58,12.62,0,.17-1,.25-1.51.38,0-.66.07-1.31.1-2Z"/><path class="cls-13" d="M256,292.9c0-.34-.08-.69-.13-1l.77.48Z"/><path class="cls-20" d="M202.43,528c-5.84-.69-7-3.06-4-8.09C200,523.09,201.22,525.52,202.43,528Z"/><path class="cls-15" d="M256.6,488.53c.17-1.82-.08-3.85.66-5.39.57-1.19,2.4-1.78,3.67-2.63l1.18,1.17-3.37,7.12Z"/><path class="cls-13" d="M253.94,493.07l1.65-3.06,1.42.77c-.56,1-1.11,2-1.66,3.06Z"/><path class="cls-15" d="M313.82,342c-9.22-3.36-18.53-6.58-25.73-13.59l1-1.73,25.61,14Z"/><path class="cls-6" d="M367,347.85l-22.88,2.89-.12-1.19,23-2.69C367,347.19,367,347.52,367,347.85Z"/><path class="cls-11" d="M367,347.85c0-.33,0-.66,0-1l5-2.13.48,1.26Z"/><path class="cls-11" d="M374.58,344.25l.78.11-.21.31Z"/><path class="cls-24" d="M299,374c4.94,1.43,10,2.58,14.8,4.34,27.86,10.22,54.3,7.06,79.54-8.1,3.41-2,6.74-4.25,10.25-6.1,1.36-.72,3.11-.67,5.34-1.1-.93,5.63-4.11,8.29-7.75,10.16-14.87,7.63-30.43,12.58-47.31,13.83S321,385.51,305,381.27c-2.66-.71-4.95-2.79-7.41-4.24Z"/><path class="cls-17" d="M260.08,276.87v0Z"/><path class="cls-26" d="M221.08,269.3c.64-5.22,6.18-10.42,11.9-10.3,4.69.11,9.35,1.22,14,1.89.66.34,1.32.68,2,1,2.74,4.82,5.2,9.37,5.29,15.49.15,10.81-11.85,19.54-23.3,15.83a16.82,16.82,0,0,1-11.89-18.36c.12-1.17,1-2.26,1.54-3.39.81.57,1.63,1.13,2.45,1.69,0,1.33-.1,2.66-.07,4a13.07,13.07,0,0,0,9.61,12.43c6.6,1.62,13.22-1.06,16.34-6.6,2.39-4.25,1.34-12.16-2.1-15.79-7.42-7.84-15-7.19-22,1.88Z"/><path class="cls-13" d="M221.08,269.3l3.76-.21-1.78,4.09c-.82-.56-1.64-1.12-2.45-1.69C220.77,270.76,220.92,270,221.08,269.3Z"/><path class="cls-27" d="M223.06,273.18l1.78-4.09c7-9.07,14.58-9.72,22-1.88,3.44,3.63,4.49,11.54,2.1,15.79-3.12,5.54-9.74,8.22-16.34,6.6A13.07,13.07,0,0,1,223,277.17C223,275.84,223,274.51,223.06,273.18ZM243,277.89c-.67-2.69-1.34-5.38-2-7.84h-6.32L231,272.88l-1.94.65,1,1.36q1.51,3.5,3,7c2.57,2.79,4.43,2.8,7,0,.67-.67,1.34-1.33,2-2l1.95-.63Z"/><path class="cls-28" d="M242,279.89c-.66.67-1.33,1.33-2,2h-7q-1.5-3.51-3-7l1-2,3.75-2.83h6.32c.62,2.46,1.29,5.15,2,7.84Z"/><path class="cls-29" d="M233,281.89h7C237.43,284.69,235.57,284.68,233,281.89Z"/><path class="cls-29" d="M242,279.89l1-2,.94,1.37Z"/><path class="cls-29" d="M231,272.88l-1,2c-.25-.37-.5-.73-1-1.36Z"/></svg>