<?xml version="1.0" encoding="utf-8"?>
<!-- Generator: Adobe Illustrator 23.0.3, SVG Export Plug-In . SVG Version: 6.00 Build 0)  -->
<svg version="1.1"
	 id="svg2" xmlns:cc="http://web.resource.org/cc/" xmlns:dc="http://purl.org/dc/elements/1.1/" xmlns:inkscape="http://www.inkscape.org/namespaces/inkscape" xmlns:rdf="http://www.w3.org/1999/02/22-rdf-syntax-ns#" xmlns:sodipodi="http://inkscape.sourceforge.net/DTD/sodipodi-0.dtd" xmlns:svg="http://www.w3.org/2000/svg"
	 xmlns="http://www.w3.org/2000/svg" xmlns:xlink="http://www.w3.org/1999/xlink" x="0px" y="0px" viewBox="0 0 120.8 119.9"
	 style="enable-background:new 0 0 120.8 119.9;" xml:space="preserve">
<style type="text/css">
	.st0{fill:url(#path1948_1_);}
	.st1{fill:url(#path1950_1_);}
</style>
<sodipodi:namedview  bordercolor="#666666" borderopacity="1.0" id="base" inkscape:current-layer="svg2" inkscape:cx="243.02499" inkscape:cy="71.887497" inkscape:pageopacity="0.0" inkscape:pageshadow="2" inkscape:window-height="543" inkscape:window-width="791" inkscape:window-x="0" inkscape:window-y="0" inkscape:zoom="1.4340089" pagecolor="#ffffff">
	</sodipodi:namedview>
<linearGradient id="path1948_1_" gradientUnits="userSpaceOnUse" x1="280.2225" y1="1291.9442" x2="389.2389" y2="1385.7382" gradientTransform="matrix(0.5625 0 0 0.568 -155.3369 -726.8217)">
	<stop  offset="0" style="stop-color:#5A9FD4"/>
	<stop  offset="1" style="stop-color:#306998"/>
</linearGradient>
<path id="path1948" class="st0" d="M60,3.8c-4.6,0-9,0.4-12.8,1.1c-11.4,2-13.5,6.2-13.5,13.9V29h26.8v3.4H33.7h-10
	c-7.8,0-14.6,4.7-16.8,13.6c-2.5,10.2-2.6,16.6,0,27.3c1.9,7.9,6.5,13.6,14.3,13.6h9.2V74.6c0-8.8,7.7-16.7,16.7-16.7h26.8
	c7.5,0,13.4-6.1,13.4-13.6V18.8c0-7.3-6.1-12.7-13.4-13.9C69.3,4.1,64.5,3.8,60,3.8z M45.5,12c2.8,0,5,2.3,5,5.1s-2.3,5.1-5,5.1
	c-2.8,0-5-2.3-5-5.1C40.4,14.3,42.7,12,45.5,12z"/>
<linearGradient id="path1950_1_" gradientUnits="userSpaceOnUse" x1="431.3729" y1="1442.5214" x2="392.4432" y2="1387.4425" gradientTransform="matrix(0.5625 0 0 0.568 -155.3369 -726.8217)">
	<stop  offset="0" style="stop-color:#FFD43B"/>
	<stop  offset="1" style="stop-color:#FFE873"/>
</linearGradient>
<path id="path1950" class="st1" d="M90.7,32.5v11.9c0,9.2-7.8,17-16.8,17H47.1c-7.3,0-13.4,6.2-13.4,13.6v25.5
	c0,7.3,6.3,11.5,13.4,13.6c8.5,2.5,16.6,2.9,26.8,0c6.8-2,13.4-5.9,13.4-13.6V90.3H60.6v-3.4h26.8h13.3c7.8,0,10.7-5.4,13.4-13.6
	c2.8-8.4,2.7-16.5,0-27.3c-1.9-7.8-5.6-13.6-13.4-13.6L90.7,32.5L90.7,32.5z M75.6,97.1c2.8,0,5,2.3,5,5.1c0,2.8-2.3,5.1-5,5.1
	c-2.8,0-5-2.3-5-5.1S72.8,97.1,75.6,97.1z"/>
</svg>
